<svg width="66" height="66" viewBox="0 0 66 66" fill="none" xmlns="http://www.w3.org/2000/svg">
<circle cx="33" cy="33" r="33" fill="black"/>
<path d="M46.88 38.0599C46.6407 37.2223 46.1621 36.5641 45.3843 36.1453C44.1279 35.4274 42.6322 35.6667 41.6151 36.624L38.7433 34.8889C38.9826 34.171 39.1621 33.453 39.1621 32.6752C39.1621 31.8376 38.9826 31 38.6834 30.2223L41.6151 28.4872C42.2134 29.0257 42.9911 29.3846 43.8287 29.3846C44.3672 29.3846 44.9057 29.265 45.3843 28.9658C46.88 28.0684 47.4185 26.1539 46.5211 24.6581C46.1022 23.9402 45.4441 23.4017 44.6065 23.1624C43.7689 22.9231 42.9313 23.0428 42.2134 23.4616C41.4954 23.8804 40.9569 24.5385 40.7176 25.3761C40.598 25.9146 40.598 26.453 40.7176 26.9317L37.7262 28.6667C36.7689 27.4701 35.333 26.6325 33.7775 26.3932V23.1026C35.0937 22.6838 36.051 21.4872 36.051 20.0513C36.051 18.3163 34.6151 16.8804 32.88 16.8804C31.145 16.8804 29.7091 18.3163 29.7091 20.0513C29.7091 21.4872 30.6664 22.6838 31.9826 23.1026V26.3932C30.3672 26.6325 28.9911 27.4701 28.0339 28.6667L25.2219 27.0513C25.5809 25.7351 24.9826 24.2992 23.7262 23.5812C22.2305 22.7436 20.3159 23.2821 19.4185 24.7778C18.5211 26.2735 19.0595 28.2479 20.5552 29.0855C21.0339 29.3846 21.5723 29.5043 22.1108 29.5043C22.4099 29.5043 22.6493 29.4445 22.9484 29.3846C23.4869 29.265 23.9057 28.9658 24.3245 28.6069L27.0766 30.2223C26.7775 30.9402 26.598 31.7778 26.598 32.6752C26.598 33.453 26.7176 34.2308 27.0168 34.8889L24.3245 36.4445C23.9655 36.0855 23.4869 35.7864 22.9484 35.6667C22.1108 35.4274 21.2732 35.547 20.5552 35.9658C19.0595 36.8633 18.5211 38.7778 19.4185 40.2735C20.0168 41.2906 21.0937 41.8291 22.1706 41.8291C22.7091 41.8291 23.2475 41.7094 23.7262 41.4103C24.4441 40.9915 24.9826 40.3334 25.2219 39.4958C25.3416 38.9573 25.3416 38.4188 25.2219 37.9402L27.8544 36.3846C28.8117 37.6411 30.3074 38.5385 31.9228 38.7778V42.1282C30.6065 42.547 29.6493 43.7436 29.6493 45.1795C29.6493 46.9146 31.0852 48.3505 32.8202 48.3505C34.5552 48.3505 35.9911 46.9146 35.9911 45.1795C35.9911 43.7436 35.0339 42.547 33.7176 42.1282V38.8376C35.3928 38.5983 36.8287 37.7009 37.786 36.4445L40.6578 38.1197C40.5381 38.5983 40.5381 39.1368 40.6578 39.6752C40.8971 40.5128 41.3758 41.171 42.1535 41.5898C42.6322 41.8889 43.1706 42.0086 43.7091 42.0086C44.786 42.0086 45.8629 41.4103 46.4612 40.453C46.9997 39.6752 47.1193 38.8376 46.88 38.0599ZM42.4527 25.9744C42.4527 25.9146 42.4527 25.9146 42.4527 25.8547C42.5723 25.4958 42.7518 25.1966 43.1108 25.0171C43.3501 24.8975 43.5296 24.8376 43.7689 24.8376C43.8886 24.8376 44.0082 24.8376 44.1279 24.8975C44.4869 25.0171 44.786 25.1966 44.9655 25.5556C45.3245 26.2137 45.145 27.0513 44.4869 27.4103C44.1279 27.5898 43.7091 27.6496 43.3501 27.5299C43.051 27.4103 42.7518 27.2308 42.6322 26.9317C42.4527 26.6325 42.3928 26.2735 42.4527 25.9744ZM23.3672 27.0513C23.1877 27.3505 22.9484 27.5299 22.6493 27.6496C22.5894 27.6496 22.5894 27.6496 22.5296 27.7094C22.1706 27.8291 21.8117 27.7693 21.5125 27.5898C21.2134 27.4103 20.974 27.1111 20.8544 26.7522C20.7347 26.3334 20.7946 25.9744 20.974 25.6752C21.2134 25.2564 21.692 25.0171 22.1706 25.0171C22.4099 25.0171 22.6493 25.077 22.8287 25.1966C23.1877 25.3761 23.427 25.7351 23.4869 26.1539C23.5467 26.3932 23.5467 26.7522 23.3672 27.0513ZM23.4869 39.0171C23.4869 39.077 23.4869 39.077 23.4869 39.1368C23.427 39.4359 23.1877 39.7351 22.8287 39.9146C22.1706 40.2735 21.333 40.094 20.974 39.4359C20.7946 39.1368 20.7347 38.718 20.8544 38.4188C20.974 38.0599 21.1535 37.7607 21.5125 37.5812C21.692 37.4017 21.9313 37.3419 22.1706 37.3419C22.2903 37.3419 22.4099 37.3419 22.5296 37.4017C22.5894 37.4017 22.5894 37.4017 22.6493 37.4616C22.9484 37.5812 23.2475 37.7607 23.3672 38.0599C23.5467 38.359 23.5467 38.6581 23.4869 39.0171ZM31.504 20.171C31.504 19.3932 32.1022 18.7949 32.88 18.7949C33.6578 18.7949 34.2561 19.3932 34.2561 20.171C34.2561 20.5898 34.0766 20.9487 33.7775 21.1881C33.5381 21.4274 33.239 21.547 32.88 21.547C32.5211 21.547 32.2219 21.4274 31.9826 21.1881C31.6834 20.9487 31.504 20.5898 31.504 20.171ZM34.2561 45.1795C34.2561 45.9573 33.6578 46.5556 32.88 46.5556C32.1022 46.5556 31.504 45.9573 31.504 45.1795C31.504 44.7607 31.6834 44.4017 31.9826 44.1624C32.2219 43.9231 32.5211 43.8034 32.88 43.8034C33.239 43.8034 33.5381 43.9231 33.7775 44.1624C34.0766 44.4017 34.2561 44.7607 34.2561 45.1795ZM37.2475 34.1111C37.0681 34.6496 36.7689 35.1282 36.4698 35.547C35.6322 36.5641 34.3758 37.2222 32.9399 37.2222C31.504 37.2222 30.2475 36.5641 29.4099 35.547C29.051 35.1282 28.8117 34.6496 28.6322 34.1111C28.5125 33.6325 28.3928 33.1539 28.3928 32.6752C28.3928 32.077 28.5125 31.5385 28.692 31.0599C28.8715 30.5214 29.1706 30.0428 29.5296 29.624C30.3672 28.6667 31.5638 28.0684 32.9399 28.0684C34.3159 28.0684 35.5125 28.6667 36.3501 29.624C36.7091 30.0428 37.0082 30.5214 37.1877 31.0599C37.3672 31.5385 37.4869 32.1368 37.4869 32.6752C37.4869 33.1539 37.3672 33.6325 37.2475 34.1111ZM45.0253 39.5556C44.8458 39.8547 44.5467 40.094 44.1877 40.2137C43.8287 40.3334 43.4698 40.2735 43.1706 40.094C42.8715 39.9146 42.6322 39.6154 42.5125 39.2564C42.5125 39.1966 42.5125 39.1966 42.5125 39.1368C42.4527 38.8376 42.5125 38.4787 42.692 38.1795C42.8715 37.8804 43.1108 37.7009 43.4698 37.5812C43.5894 37.5214 43.7689 37.5214 43.8886 37.5214C44.1279 37.5214 44.3672 37.5812 44.5467 37.7009C44.8458 37.8804 45.0852 38.1795 45.2048 38.5385C45.3245 38.8975 45.2048 39.1966 45.0253 39.5556Z" fill="white"/>
</svg>
