<svg width="248" height="86" viewBox="0 0 248 86" fill="none" xmlns="http://www.w3.org/2000/svg">
<rect width="248" height="86" rx="8" fill="#005640"/>
<path d="M64.9736 33.856C65.0803 33.6853 65.2296 33.6 65.4216 33.6H68.3656C68.4723 33.6 68.5576 33.6427 68.6216 33.728C68.707 33.792 68.7496 33.8773 68.7496 33.984V55.616C68.7496 55.7227 68.707 55.8187 68.6216 55.904C68.5576 55.968 68.4723 56 68.3656 56H65.4216C65.315 56 65.219 55.968 65.1336 55.904C65.0696 55.8187 65.0376 55.7227 65.0376 55.616V40.352C65.0376 40.288 65.0056 40.2453 64.9416 40.224C64.899 40.2027 64.867 40.224 64.8456 40.288L60.8456 46.432C60.739 46.6027 60.5896 46.688 60.3976 46.688H58.9256C58.7336 46.688 58.5843 46.6027 58.4776 46.432L54.4456 40.32C54.4243 40.256 54.3816 40.2347 54.3176 40.256C54.275 40.2773 54.2536 40.32 54.2536 40.384V55.616C54.2536 55.7227 54.211 55.8187 54.1256 55.904C54.0616 55.968 53.9763 56 53.8696 56H50.9256C50.819 56 50.723 55.968 50.6376 55.904C50.5736 55.8187 50.5416 55.7227 50.5416 55.616V33.984C50.5416 33.8773 50.5736 33.792 50.6376 33.728C50.723 33.6427 50.819 33.6 50.9256 33.6H53.8696C54.0616 33.6 54.211 33.6853 54.3176 33.856L59.5336 41.76C59.5763 41.8027 59.619 41.824 59.6616 41.824C59.7043 41.824 59.7363 41.8027 59.7576 41.76L64.9736 33.856ZM79.9446 39.392C81.2886 39.392 82.4726 39.6267 83.4966 40.096C84.5206 40.5653 85.31 41.216 85.8646 42.048C86.4193 42.8587 86.6966 43.7867 86.6966 44.832V55.616C86.6966 55.7227 86.654 55.8187 86.5686 55.904C86.5046 55.968 86.4193 56 86.3126 56H83.3686C83.262 56 83.166 55.968 83.0806 55.904C83.0166 55.8187 82.9846 55.7227 82.9846 55.616V54.592C82.9846 54.528 82.9633 54.496 82.9206 54.496C82.878 54.4747 82.8353 54.4853 82.7926 54.528C81.7473 55.68 80.2326 56.256 78.2486 56.256C76.6486 56.256 75.326 55.8507 74.2806 55.04C73.2566 54.2293 72.7446 53.024 72.7446 51.424C72.7446 49.76 73.3206 48.4693 74.4726 47.552C75.646 46.6133 77.2886 46.144 79.4006 46.144H82.8246C82.9313 46.144 82.9846 46.0907 82.9846 45.984V45.216C82.9846 44.384 82.7393 43.744 82.2486 43.296C81.758 42.8267 81.022 42.592 80.0406 42.592C79.23 42.592 78.5686 42.7413 78.0566 43.04C77.566 43.3173 77.2566 43.712 77.1286 44.224C77.0646 44.48 76.9153 44.5867 76.6806 44.544L73.5766 44.16C73.47 44.1387 73.374 44.1067 73.2886 44.064C73.2246 44 73.2033 43.9253 73.2246 43.84C73.3953 42.5387 74.0886 41.472 75.3046 40.64C76.542 39.808 78.0886 39.392 79.9446 39.392ZM79.1766 53.312C80.222 53.312 81.118 53.0347 81.8646 52.48C82.6113 51.9253 82.9846 51.2213 82.9846 50.368V48.864C82.9846 48.7573 82.9313 48.704 82.8246 48.704H80.1366C79.006 48.704 78.11 48.9173 77.4486 49.344C76.8086 49.7707 76.4886 50.3787 76.4886 51.168C76.4886 51.8507 76.734 52.384 77.2246 52.768C77.7366 53.1307 78.3873 53.312 79.1766 53.312ZM93.1754 37.408C92.514 37.408 91.97 37.1947 91.5434 36.768C91.1167 36.3413 90.9034 35.7973 90.9034 35.136C90.9034 34.4747 91.1167 33.9307 91.5434 33.504C91.97 33.0773 92.514 32.864 93.1754 32.864C93.8367 32.864 94.3807 33.0773 94.8074 33.504C95.234 33.9307 95.4474 34.4747 95.4474 35.136C95.4474 35.7973 95.234 36.3413 94.8074 36.768C94.3807 37.1947 93.8367 37.408 93.1754 37.408ZM91.6394 56C91.5327 56 91.4367 55.968 91.3514 55.904C91.2874 55.8187 91.2554 55.7227 91.2554 55.616V40C91.2554 39.8933 91.2874 39.808 91.3514 39.744C91.4367 39.6587 91.5327 39.616 91.6394 39.616H94.5834C94.69 39.616 94.7754 39.6587 94.8394 39.744C94.9247 39.808 94.9674 39.8933 94.9674 40V55.616C94.9674 55.7227 94.9247 55.8187 94.8394 55.904C94.7754 55.968 94.69 56 94.5834 56H91.6394ZM107.7 39.392C109.428 39.392 110.804 39.904 111.828 40.928C112.873 41.952 113.396 43.3493 113.396 45.12V55.616C113.396 55.7227 113.353 55.8187 113.268 55.904C113.204 55.968 113.118 56 113.012 56H110.068C109.961 56 109.865 55.968 109.78 55.904C109.716 55.8187 109.684 55.7227 109.684 55.616V45.888C109.684 44.9067 109.406 44.1173 108.852 43.52C108.297 42.9013 107.561 42.592 106.644 42.592C105.726 42.592 104.98 42.8907 104.404 43.488C103.849 44.0853 103.572 44.8747 103.572 45.856V55.616C103.572 55.7227 103.529 55.8187 103.444 55.904C103.38 55.968 103.294 56 103.188 56H100.244C100.137 56 100.041 55.968 99.9556 55.904C99.8916 55.8187 99.8596 55.7227 99.8596 55.616V40.032C99.8596 39.9253 99.8916 39.84 99.9556 39.776C100.041 39.6907 100.137 39.648 100.244 39.648H103.188C103.294 39.648 103.38 39.6907 103.444 39.776C103.529 39.84 103.572 39.9253 103.572 40.032V41.056C103.572 41.12 103.593 41.1627 103.636 41.184C103.678 41.2053 103.71 41.184 103.732 41.12C104.606 39.968 105.929 39.392 107.7 39.392ZM139.736 33.856C139.843 33.6853 139.992 33.6 140.184 33.6H143.128C143.235 33.6 143.32 33.6427 143.384 33.728C143.469 33.792 143.512 33.8773 143.512 33.984V55.616C143.512 55.7227 143.469 55.8187 143.384 55.904C143.32 55.968 143.235 56 143.128 56H140.184C140.077 56 139.981 55.968 139.896 55.904C139.832 55.8187 139.8 55.7227 139.8 55.616V40.352C139.8 40.288 139.768 40.2453 139.704 40.224C139.661 40.2027 139.629 40.224 139.608 40.288L135.608 46.432C135.501 46.6027 135.352 46.688 135.16 46.688H133.688C133.496 46.688 133.347 46.6027 133.24 46.432L129.208 40.32C129.187 40.256 129.144 40.2347 129.08 40.256C129.037 40.2773 129.016 40.32 129.016 40.384V55.616C129.016 55.7227 128.973 55.8187 128.888 55.904C128.824 55.968 128.739 56 128.632 56H125.688C125.581 56 125.485 55.968 125.4 55.904C125.336 55.8187 125.304 55.7227 125.304 55.616V33.984C125.304 33.8773 125.336 33.792 125.4 33.728C125.485 33.6427 125.581 33.6 125.688 33.6H128.632C128.824 33.6 128.973 33.6853 129.08 33.856L134.296 41.76C134.339 41.8027 134.381 41.824 134.424 41.824C134.467 41.824 134.499 41.8027 134.52 41.76L139.736 33.856ZM162.259 45.984C162.344 46.5173 162.387 47.1147 162.387 47.776L162.355 48.768C162.355 49.024 162.227 49.152 161.971 49.152H151.955C151.848 49.152 151.795 49.2053 151.795 49.312C151.859 50.016 151.955 50.496 152.083 50.752C152.595 52.288 153.843 53.0667 155.827 53.088C157.278 53.088 158.43 52.4907 159.283 51.296C159.368 51.168 159.475 51.104 159.603 51.104C159.688 51.104 159.763 51.136 159.827 51.2L161.811 52.832C162.003 52.9813 162.035 53.152 161.907 53.344C161.246 54.2827 160.36 55.008 159.251 55.52C158.163 56.032 156.947 56.288 155.603 56.288C153.939 56.288 152.52 55.9147 151.347 55.168C150.195 54.4213 149.352 53.376 148.819 52.032C148.328 50.88 148.083 49.28 148.083 47.232C148.083 45.9947 148.211 44.992 148.467 44.224C148.894 42.7307 149.694 41.5573 150.867 40.704C152.062 39.8293 153.491 39.392 155.155 39.392C159.358 39.392 161.726 41.5893 162.259 45.984ZM155.155 42.592C154.366 42.592 153.704 42.7947 153.171 43.2C152.659 43.584 152.296 44.128 152.083 44.832C151.955 45.1947 151.87 45.664 151.827 46.24C151.784 46.3467 151.827 46.4 151.955 46.4H158.451C158.558 46.4 158.611 46.3467 158.611 46.24C158.568 45.7067 158.504 45.3013 158.419 45.024C158.227 44.256 157.843 43.6587 157.267 43.232C156.712 42.8053 156.008 42.592 155.155 42.592ZM174.26 39.392C175.988 39.392 177.364 39.904 178.388 40.928C179.433 41.952 179.956 43.3493 179.956 45.12V55.616C179.956 55.7227 179.913 55.8187 179.828 55.904C179.764 55.968 179.678 56 179.572 56H176.628C176.521 56 176.425 55.968 176.34 55.904C176.276 55.8187 176.244 55.7227 176.244 55.616V45.888C176.244 44.9067 175.966 44.1173 175.412 43.52C174.857 42.9013 174.121 42.592 173.204 42.592C172.286 42.592 171.54 42.8907 170.964 43.488C170.409 44.0853 170.132 44.8747 170.132 45.856V55.616C170.132 55.7227 170.089 55.8187 170.004 55.904C169.94 55.968 169.854 56 169.748 56H166.804C166.697 56 166.601 55.968 166.516 55.904C166.452 55.8187 166.42 55.7227 166.42 55.616V40.032C166.42 39.9253 166.452 39.84 166.516 39.776C166.601 39.6907 166.697 39.648 166.804 39.648H169.748C169.854 39.648 169.94 39.6907 170.004 39.776C170.089 39.84 170.132 39.9253 170.132 40.032V41.056C170.132 41.12 170.153 41.1627 170.196 41.184C170.238 41.2053 170.27 41.184 170.292 41.12C171.166 39.968 172.489 39.392 174.26 39.392ZM194.13 40.032C194.13 39.9253 194.162 39.84 194.226 39.776C194.311 39.6907 194.407 39.648 194.514 39.648H197.426C197.533 39.648 197.618 39.6907 197.682 39.776C197.767 39.84 197.81 39.9253 197.81 40.032V55.616C197.81 55.7227 197.767 55.8187 197.682 55.904C197.618 55.968 197.533 56 197.426 56H194.514C194.407 56 194.311 55.968 194.226 55.904C194.162 55.8187 194.13 55.7227 194.13 55.616V54.592C194.13 54.528 194.109 54.4853 194.066 54.464C194.023 54.4427 193.981 54.464 193.938 54.528C193.063 55.6587 191.751 56.224 190.002 56.224C188.381 56.224 187.015 55.7547 185.906 54.816C184.818 53.8773 184.274 52.544 184.274 50.816V40.032C184.274 39.9253 184.306 39.84 184.37 39.776C184.455 39.6907 184.551 39.648 184.658 39.648H187.602C187.709 39.648 187.794 39.6907 187.858 39.776C187.943 39.84 187.986 39.9253 187.986 40.032V49.76C187.986 50.7627 188.242 51.5627 188.754 52.16C189.287 52.7573 190.023 53.056 190.962 53.056C191.922 53.056 192.69 52.7573 193.266 52.16C193.842 51.5627 194.13 50.7627 194.13 49.76V40.032Z" fill="white"/>
</svg>
