<svg width="149" height="108" viewBox="0 0 149 108" fill="none" xmlns="http://www.w3.org/2000/svg">
<path d="M133.9 0.200045L12.5001 10.2C4.30006 10.9 -1.29995 18.8001 0.900051 26.8001L14.6001 77.2C16.2001 82.9 21.4 86.9 27.3 86.9H38.6L56.7001 107.8L54.3 86.9H119.8C125.8 86.9 131.1 82.8 132.6 76.9L147.8 16.5C150 7.80005 142.9 -0.499955 133.9 0.200045Z" fill="white"/>
<path d="M133.9 0.200045L12.5001 10.2C4.30006 10.9 -1.29995 18.8001 0.900051 26.8001L14.6001 77.2C16.2001 82.9 21.4 86.9 27.3 86.9H38.6L56.7001 107.8L54.3 86.9H119.8C125.8 86.9 131.1 82.8 132.6 76.9L147.8 16.5C150 7.80005 142.9 -0.499955 133.9 0.200045ZM146.8 16.4L131.6 76.8C130.2 82.2 125.4 86 119.7 86H53.2001L55.3 104.9L39.0001 86H27.3C21.8 86 16.9001 82.3 15.5001 77L1.80005 26.6001C0.800045 23.1001 1.50006 19.4 3.60006 16.4C5.70006 13.4 9.00006 11.5 12.6001 11.2L134 1.20005C134.4 1.20005 134.7 1.20005 135 1.20005C138.6 1.20005 141.9 2.70005 144.3 5.50005C146.9 8.50005 147.8 12.5 146.8 16.4Z" fill="#D9D9D9"/>
</svg>
