<svg width="48" height="48" viewBox="0 0 48 48" fill="none" xmlns="http://www.w3.org/2000/svg">
<path d="M33 24C33 20.46 30.96 17.42 28 15.94V20.36L32.9 25.26C32.96 24.86 33 24.44 33 24ZM38 24C38 25.88 37.6 27.64 36.92 29.28L39.94 32.3C41.26 29.82 42 27 42 24C42 15.44 36.02 8.28 28 6.46V10.58C33.78 12.3 38 17.66 38 24ZM8.54 6L6 8.54L15.46 18H6V30H14L24 40V26.54L32.5 35.04C31.16 36.08 29.66 36.9 28 37.4V41.52C30.76 40.9 33.26 39.62 35.38 37.9L39.46 42L42 39.46L24 21.46L8.54 6ZM24 8L19.82 12.18L24 16.36V8Z" fill="black"/>
</svg>
