<svg width="138" height="138" viewBox="0 0 138 138" fill="none" xmlns="http://www.w3.org/2000/svg">
<path fill-rule="evenodd" clip-rule="evenodd" d="M23 69C23 43.6368 43.6368 23 69 23C94.3633 23 115 43.6368 115 69C115 94.3633 94.3633 115 69 115C43.6368 115 23 94.3633 23 69ZM69 34.5C59.85 34.5 51.0748 38.1348 44.6048 44.6048C38.1348 51.0748 34.5 59.85 34.5 69C34.5 78.15 38.1348 86.9252 44.6048 93.3952C51.0748 99.8652 59.85 103.5 69 103.5C78.15 103.5 86.9252 99.8652 93.3952 93.3952C99.8652 86.9252 103.5 78.15 103.5 69C103.5 64.0237 102.425 59.1582 100.403 54.7141L66.4842 88.6332L48.0439 70.19L56.1744 62.0595L66.4842 72.3664L93.8168 45.0338C93.6776 44.8897 93.5371 44.7467 93.3952 44.6048C86.9252 38.1348 78.15 34.5 69 34.5Z" fill="#00B451"/>
</svg>
