<svg width="48" height="48" viewBox="0 0 48 48" fill="none" xmlns="http://www.w3.org/2000/svg">
<path d="M38.2802 25.8718C38.3522 25.2718 38.4002 24.6478 38.4002 23.9998C38.4002 23.3518 38.3522 22.7278 38.2562 22.1278L42.3122 18.9598C42.6722 18.6718 42.7682 18.1438 42.5522 17.7358L38.7122 11.0878C38.4722 10.6558 37.9682 10.5118 37.5362 10.6558L32.7602 12.5758C31.7522 11.8078 30.6962 11.1838 29.5202 10.7038L28.8002 5.6158C28.7282 5.1358 28.3202 4.7998 27.8402 4.7998H20.1602C19.6802 4.7998 19.2962 5.1358 19.2242 5.6158L18.5042 10.7038C17.3282 11.1838 16.2482 11.8318 15.2642 12.5758L10.4882 10.6558C10.0562 10.4878 9.55221 10.6558 9.31221 11.0878L5.47221 17.7358C5.23221 18.1678 5.32821 18.6718 5.71221 18.9598L9.76821 22.1278C9.67221 22.7278 9.60021 23.3758 9.60021 23.9998C9.60021 24.6238 9.64821 25.2718 9.74421 25.8718L5.68821 29.0398C5.32821 29.3278 5.23221 29.8558 5.44821 30.2638L9.28821 36.9118C9.52821 37.3438 10.0322 37.4878 10.4642 37.3438L15.2402 35.4238C16.2482 36.1918 17.3042 36.8158 18.4802 37.2958L19.2002 42.3838C19.2962 42.8638 19.6802 43.1998 20.1602 43.1998H27.8402C28.3202 43.1998 28.7282 42.8638 28.7762 42.3838L29.4962 37.2958C30.6722 36.8158 31.7522 36.1678 32.7362 35.4238L37.5122 37.3438C37.9442 37.5118 38.4482 37.3438 38.6882 36.9118L42.5282 30.2638C42.7682 29.8318 42.6722 29.3278 42.2882 29.0398L38.2802 25.8718V25.8718ZM24.0002 31.1998C20.0402 31.1998 16.8002 27.9598 16.8002 23.9998C16.8002 20.0398 20.0402 16.7998 24.0002 16.7998C27.9602 16.7998 31.2002 20.0398 31.2002 23.9998C31.2002 27.9598 27.9602 31.1998 24.0002 31.1998Z" fill="black"/>
</svg>
