<svg width="465" height="48" viewBox="0 0 465 48" fill="none" xmlns="http://www.w3.org/2000/svg">
<g clip-path="url(#clip0)">
<path d="M10.2716 48H0V0H40.1461C50.6962 0 55.3968 3.33577 55.3968 13.9049C55.3968 26.019 52.6461 30.5838 38.9275 30.5838H10.2716V48ZM43.8718 20.8574C44.5333 20.4009 45.1252 19.523 45.1252 17.5216V13.308C45.1252 8.98903 42.6879 8.67301 38.6837 8.67301H10.2716V21.9108H39.206C41.4693 21.9108 42.9665 21.4894 43.8718 20.8574Z" fill="#00609C"/>
<path d="M58.2174 48H46.4834L76.358 0H86.4206L116.295 48H104.561L98.8161 38.6598H63.9973L58.2174 48ZM69.3246 29.9868H93.454L81.4067 10.534L69.3246 29.9868Z" fill="#00609C"/>
<path d="M172.91 26.7213C175.731 28.6174 176.741 31.6372 176.741 34.7974V48H166.852V36.4126C166.852 31.0402 164.728 30.5838 159.644 30.5838H131.023V48.0351H120.787V0H159.819C171.483 0 177.298 2.66862 177.298 14.3965V17.9781C177.298 21.5245 176.218 24.8603 172.91 26.7213ZM131.023 8.67301V21.8405H159.122C162.813 21.8405 167.061 21.7703 167.061 17.346V13.308C167.061 8.07608 161.943 8.67301 157.59 8.67301H131.023Z" fill="#00609C"/>
<path d="M197.457 0H187.221V48H197.457V0Z" fill="#00609C"/>
<path d="M240.424 48H230.396L202.541 0H214.136L235.41 36.7988L256.719 0H268.314L240.424 48Z" fill="#00609C"/>
<path d="M324.234 48H274.512V0H323.99V8.67301H284.749V18.9612H322.458V27.6694H284.749V39.327H324.234V48Z" fill="#00609C"/>
<path d="M382.938 33.744C383.495 32.0234 383.773 29.6006 383.773 26.4053V21.8756C383.773 13.94 383.216 8.70812 373.92 8.70812H343.07V39.327H372.875C377.959 39.327 381.371 38.8354 382.938 33.744ZM372.074 48H332.833V0H372.283C390.807 0 394.045 7.65472 394.045 23.9824C394.045 39.9239 390.215 48 372.074 48Z" fill="#00609C"/>
<path d="M406.615 48H394.881L424.755 0H434.818L464.693 48H452.959L447.179 38.6598H412.325L406.615 48ZM417.722 29.9868H441.851L429.804 10.534L417.722 29.9868Z" fill="#00609C"/>
</g>
<defs>
<clipPath id="clip0">
<rect width="464.727" height="48" fill="white"/>
</clipPath>
</defs>
</svg>
