<svg width="1932" height="646" viewBox="0 0 1932 646" fill="none" xmlns="http://www.w3.org/2000/svg">
<rect y="1" width="407.236" height="644.583" fill="#D5F267"/>
<path d="M158.837 341C158.687 341 158.552 340.955 158.432 340.865C158.342 340.745 158.297 340.61 158.297 340.46V335.918C158.297 335.678 158.342 335.454 158.432 335.244L168.056 315.232C168.086 315.142 168.086 315.082 168.056 315.052C168.026 314.992 167.966 314.962 167.876 314.962H158.837C158.687 314.962 158.552 314.917 158.432 314.827C158.342 314.707 158.297 314.572 158.297 314.422V310.06C158.297 309.91 158.342 309.79 158.432 309.7C158.552 309.58 158.687 309.52 158.837 309.52H174.307C174.456 309.52 174.576 309.58 174.666 309.7C174.786 309.79 174.846 309.91 174.846 310.06V314.602C174.846 314.812 174.801 315.037 174.711 315.277L165.087 335.289C165.058 335.379 165.058 335.454 165.087 335.514C165.117 335.544 165.177 335.559 165.267 335.559H174.307C174.456 335.559 174.576 335.618 174.666 335.738C174.786 335.828 174.846 335.948 174.846 336.098V340.46C174.846 340.61 174.786 340.745 174.666 340.865C174.576 340.955 174.456 341 174.307 341H158.837ZM186.544 341.36C183.875 341.36 181.777 340.685 180.248 339.336C178.749 337.987 177.999 336.143 177.999 333.805V325.08C177.999 322.802 178.764 320.973 180.293 319.594C181.822 318.215 183.905 317.525 186.544 317.525C189.212 317.525 191.31 318.215 192.839 319.594C194.368 320.973 195.133 322.802 195.133 325.08V333.805C195.133 336.143 194.368 337.987 192.839 339.336C191.34 340.685 189.242 341.36 186.544 341.36ZM186.544 335.873C187.203 335.873 187.743 335.633 188.162 335.154C188.582 334.674 188.792 334.059 188.792 333.31V325.53C188.792 324.781 188.582 324.166 188.162 323.686C187.743 323.207 187.203 322.967 186.544 322.967C185.884 322.967 185.344 323.207 184.925 323.686C184.535 324.166 184.34 324.781 184.34 325.53V333.31C184.34 334.059 184.535 334.674 184.925 335.154C185.344 335.633 185.884 335.873 186.544 335.873ZM209.631 317.525C211.669 317.525 213.198 318.2 214.218 319.549C215.237 320.898 215.747 322.787 215.747 325.215V340.46C215.747 340.61 215.687 340.745 215.567 340.865C215.477 340.955 215.357 341 215.207 341H209.946C209.796 341 209.661 340.955 209.541 340.865C209.451 340.745 209.406 340.61 209.406 340.46V325.71C209.406 324.84 209.226 324.166 208.866 323.686C208.536 323.207 208.042 322.967 207.382 322.967C206.693 322.967 206.153 323.222 205.763 323.731C205.404 324.211 205.224 324.9 205.224 325.8V340.46C205.224 340.61 205.164 340.745 205.044 340.865C204.954 340.955 204.834 341 204.684 341H199.422C199.272 341 199.138 340.955 199.018 340.865C198.928 340.745 198.883 340.61 198.883 340.46V318.425C198.883 318.275 198.928 318.155 199.018 318.065C199.138 317.945 199.272 317.885 199.422 317.885H204.684C204.834 317.885 204.954 317.945 205.044 318.065C205.164 318.155 205.224 318.275 205.224 318.425V319.279C205.224 319.369 205.254 319.414 205.314 319.414C205.404 319.414 205.508 319.354 205.628 319.234C206.588 318.095 207.922 317.525 209.631 317.525ZM236.355 330.882C236.355 331.031 236.295 331.166 236.176 331.286C236.086 331.376 235.966 331.421 235.816 331.421H225.922C225.772 331.421 225.697 331.496 225.697 331.646V333.31C225.697 334.059 225.892 334.689 226.282 335.199C226.702 335.678 227.226 335.918 227.856 335.918C228.426 335.918 228.89 335.738 229.25 335.379C229.61 334.989 229.85 334.509 229.97 333.94C230.06 333.64 230.254 333.49 230.554 333.49L235.726 333.76C235.876 333.76 235.996 333.82 236.086 333.94C236.206 334.03 236.25 334.164 236.221 334.344C236.011 336.653 235.201 338.407 233.792 339.606C232.413 340.775 230.434 341.36 227.856 341.36C225.188 341.36 223.104 340.7 221.605 339.381C220.106 338.032 219.356 336.173 219.356 333.805V325.08C219.356 322.802 220.106 320.973 221.605 319.594C223.134 318.215 225.218 317.525 227.856 317.525C230.494 317.525 232.563 318.215 234.062 319.594C235.591 320.973 236.355 322.802 236.355 325.08V330.882ZM227.856 322.967C227.226 322.967 226.702 323.207 226.282 323.686C225.892 324.166 225.697 324.781 225.697 325.53V327.284C225.697 327.434 225.772 327.509 225.922 327.509H229.79C229.94 327.509 230.015 327.434 230.015 327.284V325.53C230.015 324.781 229.805 324.166 229.385 323.686C228.995 323.207 228.486 322.967 227.856 322.967ZM263.102 341C262.742 341 262.547 340.835 262.517 340.505L261.797 336.188C261.797 336.038 261.707 335.963 261.528 335.963H255.816C255.636 335.963 255.546 336.038 255.546 336.188L254.827 340.505C254.797 340.835 254.602 341 254.242 341H248.981C248.591 341 248.441 340.805 248.531 340.415L255.142 310.015C255.202 309.685 255.396 309.52 255.726 309.52H261.797C262.127 309.52 262.322 309.685 262.382 310.015L268.948 340.415L268.993 340.595C268.993 340.865 268.828 341 268.498 341H263.102ZM256.446 330.837C256.446 330.986 256.506 331.061 256.626 331.061H260.673C260.823 331.061 260.883 330.986 260.853 330.837L258.739 318.56C258.709 318.47 258.664 318.425 258.604 318.425C258.544 318.425 258.499 318.47 258.47 318.56L256.446 330.837Z" fill="black"/>
<rect x="54.7148" y="88.1523" width="330.285" height="520.162" stroke="black" stroke-width="2"/>
<rect x="407" y="0.958008" width="1267.93" height="322.291" fill="#F7ABD6"/>
<path d="M812.439 66C812.289 66 812.154 65.955 812.034 65.8651C811.944 65.7452 811.899 65.6103 811.899 65.4603V60.9183C811.899 60.6784 811.944 60.4536 812.034 60.2437L821.658 40.2317C821.688 40.1417 821.688 40.0818 821.658 40.0518C821.628 39.9918 821.568 39.9619 821.478 39.9619H812.439C812.289 39.9619 812.154 39.9169 812.034 39.827C811.944 39.707 811.899 39.5721 811.899 39.4222V35.06C811.899 34.9101 811.944 34.7902 812.034 34.7003C812.154 34.5803 812.289 34.5204 812.439 34.5204H827.909C828.059 34.5204 828.179 34.5803 828.269 34.7003C828.389 34.7902 828.449 34.9101 828.449 35.06V39.6021C828.449 39.812 828.404 40.0368 828.314 40.2767L818.69 60.2887C818.66 60.3786 818.66 60.4536 818.69 60.5136C818.72 60.5435 818.78 60.5585 818.87 60.5585H827.909C828.059 60.5585 828.179 60.6185 828.269 60.7384C828.389 60.8283 828.449 60.9483 828.449 61.0982V65.4603C828.449 65.6103 828.389 65.7452 828.269 65.8651C828.179 65.955 828.059 66 827.909 66H812.439ZM840.146 66.3598C837.478 66.3598 835.379 65.6852 833.85 64.3361C832.351 62.987 831.602 61.1431 831.602 58.8047V50.0803C831.602 47.8018 832.366 45.973 833.895 44.5939C835.424 43.2148 837.508 42.5252 840.146 42.5252C842.814 42.5252 844.913 43.2148 846.442 44.5939C847.971 45.973 848.735 47.8018 848.735 50.0803V58.8047C848.735 61.1431 847.971 62.987 846.442 64.3361C844.943 65.6852 842.844 66.3598 840.146 66.3598ZM840.146 60.8733C840.806 60.8733 841.345 60.6335 841.765 60.1538C842.185 59.6741 842.395 59.0595 842.395 58.31V50.53C842.395 49.7805 842.185 49.1659 841.765 48.6862C841.345 48.2065 840.806 47.9667 840.146 47.9667C839.486 47.9667 838.947 48.2065 838.527 48.6862C838.137 49.1659 837.942 49.7805 837.942 50.53V58.31C837.942 59.0595 838.137 59.6741 838.527 60.1538C838.947 60.6335 839.486 60.8733 840.146 60.8733ZM863.233 42.5252C865.272 42.5252 866.801 43.1998 867.82 44.5489C868.84 45.898 869.349 47.7868 869.349 50.2152V65.4603C869.349 65.6103 869.289 65.7452 869.169 65.8651C869.08 65.955 868.96 66 868.81 66H863.548C863.398 66 863.263 65.955 863.143 65.8651C863.053 65.7452 863.008 65.6103 863.008 65.4603V50.7099C863.008 49.8405 862.829 49.1659 862.469 48.6862C862.139 48.2065 861.644 47.9667 860.985 47.9667C860.295 47.9667 859.756 48.2215 859.366 48.7312C859.006 49.2109 858.826 49.9004 858.826 50.7998V65.4603C858.826 65.6103 858.766 65.7452 858.646 65.8651C858.556 65.955 858.436 66 858.287 66H853.025C852.875 66 852.74 65.955 852.62 65.8651C852.53 65.7452 852.485 65.6103 852.485 65.4603V43.4246C852.485 43.2747 852.53 43.1548 852.62 43.0649C852.74 42.9449 852.875 42.885 853.025 42.885H858.287C858.436 42.885 858.556 42.9449 858.646 43.0649C858.766 43.1548 858.826 43.2747 858.826 43.4246V44.2791C858.826 44.369 858.856 44.414 858.916 44.414C859.006 44.414 859.111 44.354 859.231 44.2341C860.19 43.0948 861.524 42.5252 863.233 42.5252ZM889.958 55.8816C889.958 56.0315 889.898 56.1664 889.778 56.2863C889.688 56.3762 889.568 56.4212 889.418 56.4212H879.525C879.375 56.4212 879.3 56.4962 879.3 56.6461V58.31C879.3 59.0595 879.495 59.6891 879.884 60.1988C880.304 60.6784 880.829 60.9183 881.458 60.9183C882.028 60.9183 882.493 60.7384 882.853 60.3786C883.212 59.9889 883.452 59.5092 883.572 58.9396C883.662 58.6398 883.857 58.4899 884.157 58.4899L889.328 58.7597C889.478 58.7597 889.598 58.8196 889.688 58.9396C889.808 59.0295 889.853 59.1644 889.823 59.3443C889.613 61.6528 888.804 63.4067 887.395 64.6059C886.016 65.7751 884.037 66.3598 881.458 66.3598C878.79 66.3598 876.707 65.7002 875.208 64.381C873.708 63.0319 872.959 61.1731 872.959 58.8047V50.0803C872.959 47.8018 873.708 45.973 875.208 44.5939C876.737 43.2148 878.82 42.5252 881.458 42.5252C884.097 42.5252 886.165 43.2148 887.664 44.5939C889.193 45.973 889.958 47.8018 889.958 50.0803V55.8816ZM881.458 47.9667C880.829 47.9667 880.304 48.2065 879.884 48.6862C879.495 49.1659 879.3 49.7805 879.3 50.53V52.2839C879.3 52.4338 879.375 52.5087 879.525 52.5087H883.392C883.542 52.5087 883.617 52.4338 883.617 52.2839V50.53C883.617 49.7805 883.407 49.1659 882.987 48.6862C882.598 48.2065 882.088 47.9667 881.458 47.9667ZM904.022 66C903.872 66 903.737 65.955 903.618 65.8651C903.528 65.7452 903.483 65.6103 903.483 65.4603V35.06C903.483 34.9101 903.528 34.7902 903.618 34.7003C903.737 34.5803 903.872 34.5204 904.022 34.5204H912.162C914.89 34.5204 917.079 35.3149 918.728 36.9038C920.377 38.4928 921.201 40.6064 921.201 43.2447V57.2757C921.201 59.9139 920.377 62.0276 918.728 63.6165C917.079 65.2055 914.89 66 912.162 66H904.022ZM909.823 60.3337C909.823 60.4836 909.898 60.5585 910.048 60.5585L912.072 60.5136C912.882 60.4836 913.541 60.1388 914.051 59.4792C914.56 58.8196 914.83 57.9502 914.86 56.8709V43.6495C914.86 42.5102 914.605 41.6108 914.096 40.9512C913.586 40.2916 912.897 39.9619 912.027 39.9619H910.048C909.898 39.9619 909.823 40.0368 909.823 40.1867V60.3337Z" fill="black"/>
<rect x="1675.17" y="1" width="256.084" height="644.583" fill="#A0DEF1"/>
<path d="M1743.44 341C1743.29 341 1743.15 340.955 1743.03 340.865C1742.94 340.745 1742.9 340.61 1742.9 340.46V335.918C1742.9 335.678 1742.94 335.454 1743.03 335.244L1752.66 315.232C1752.69 315.142 1752.69 315.082 1752.66 315.052C1752.63 314.992 1752.57 314.962 1752.48 314.962H1743.44C1743.29 314.962 1743.15 314.917 1743.03 314.827C1742.94 314.707 1742.9 314.572 1742.9 314.422V310.06C1742.9 309.91 1742.94 309.79 1743.03 309.7C1743.15 309.58 1743.29 309.52 1743.44 309.52H1758.91C1759.06 309.52 1759.18 309.58 1759.27 309.7C1759.39 309.79 1759.45 309.91 1759.45 310.06V314.602C1759.45 314.812 1759.4 315.037 1759.31 315.277L1749.69 335.289C1749.66 335.379 1749.66 335.454 1749.69 335.514C1749.72 335.544 1749.78 335.559 1749.87 335.559H1758.91C1759.06 335.559 1759.18 335.618 1759.27 335.738C1759.39 335.828 1759.45 335.948 1759.45 336.098V340.46C1759.45 340.61 1759.39 340.745 1759.27 340.865C1759.18 340.955 1759.06 341 1758.91 341H1743.44ZM1771.15 341.36C1768.48 341.36 1766.38 340.685 1764.85 339.336C1763.35 337.987 1762.6 336.143 1762.6 333.805V325.08C1762.6 322.802 1763.37 320.973 1764.9 319.594C1766.42 318.215 1768.51 317.525 1771.15 317.525C1773.81 317.525 1775.91 318.215 1777.44 319.594C1778.97 320.973 1779.74 322.802 1779.74 325.08V333.805C1779.74 336.143 1778.97 337.987 1777.44 339.336C1775.94 340.685 1773.84 341.36 1771.15 341.36ZM1771.15 335.873C1771.81 335.873 1772.35 335.633 1772.76 335.154C1773.18 334.674 1773.39 334.059 1773.39 333.31V325.53C1773.39 324.781 1773.18 324.166 1772.76 323.686C1772.35 323.207 1771.81 322.967 1771.15 322.967C1770.49 322.967 1769.95 323.207 1769.53 323.686C1769.14 324.166 1768.94 324.781 1768.94 325.53V333.31C1768.94 334.059 1769.14 334.674 1769.53 335.154C1769.95 335.633 1770.49 335.873 1771.15 335.873ZM1794.23 317.525C1796.27 317.525 1797.8 318.2 1798.82 319.549C1799.84 320.898 1800.35 322.787 1800.35 325.215V340.46C1800.35 340.61 1800.29 340.745 1800.17 340.865C1800.08 340.955 1799.96 341 1799.81 341H1794.55C1794.4 341 1794.26 340.955 1794.14 340.865C1794.05 340.745 1794.01 340.61 1794.01 340.46V325.71C1794.01 324.84 1793.83 324.166 1793.47 323.686C1793.14 323.207 1792.64 322.967 1791.98 322.967C1791.3 322.967 1790.76 323.222 1790.37 323.731C1790.01 324.211 1789.83 324.9 1789.83 325.8V340.46C1789.83 340.61 1789.77 340.745 1789.65 340.865C1789.56 340.955 1789.44 341 1789.29 341H1784.02C1783.88 341 1783.74 340.955 1783.62 340.865C1783.53 340.745 1783.49 340.61 1783.49 340.46V318.425C1783.49 318.275 1783.53 318.155 1783.62 318.065C1783.74 317.945 1783.88 317.885 1784.02 317.885H1789.29C1789.44 317.885 1789.56 317.945 1789.65 318.065C1789.77 318.155 1789.83 318.275 1789.83 318.425V319.279C1789.83 319.369 1789.86 319.414 1789.92 319.414C1790.01 319.414 1790.11 319.354 1790.23 319.234C1791.19 318.095 1792.52 317.525 1794.23 317.525ZM1820.96 330.882C1820.96 331.031 1820.9 331.166 1820.78 331.286C1820.69 331.376 1820.57 331.421 1820.42 331.421H1810.52C1810.37 331.421 1810.3 331.496 1810.3 331.646V333.31C1810.3 334.059 1810.49 334.689 1810.88 335.199C1811.3 335.678 1811.83 335.918 1812.46 335.918C1813.03 335.918 1813.49 335.738 1813.85 335.379C1814.21 334.989 1814.45 334.509 1814.57 333.94C1814.66 333.64 1814.86 333.49 1815.16 333.49L1820.33 333.76C1820.48 333.76 1820.6 333.82 1820.69 333.94C1820.81 334.03 1820.85 334.164 1820.82 334.344C1820.61 336.653 1819.8 338.407 1818.39 339.606C1817.02 340.775 1815.04 341.36 1812.46 341.36C1809.79 341.36 1807.71 340.7 1806.21 339.381C1804.71 338.032 1803.96 336.173 1803.96 333.805V325.08C1803.96 322.802 1804.71 320.973 1806.21 319.594C1807.74 318.215 1809.82 317.525 1812.46 317.525C1815.1 317.525 1817.17 318.215 1818.66 319.594C1820.19 320.973 1820.96 322.802 1820.96 325.08V330.882ZM1812.46 322.967C1811.83 322.967 1811.3 323.207 1810.88 323.686C1810.49 324.166 1810.3 324.781 1810.3 325.53V327.284C1810.3 327.434 1810.37 327.509 1810.52 327.509H1814.39C1814.54 327.509 1814.62 327.434 1814.62 327.284V325.53C1814.62 324.781 1814.41 324.166 1813.99 323.686C1813.6 323.207 1813.09 322.967 1812.46 322.967ZM1842.98 341.36C1840.28 341.36 1838.11 340.565 1836.46 338.976C1834.84 337.357 1834.03 335.199 1834.03 332.501V317.93C1834.03 315.262 1834.84 313.133 1836.46 311.544C1838.11 309.955 1840.28 309.161 1842.98 309.161C1845.71 309.161 1847.88 309.955 1849.5 311.544C1851.15 313.133 1851.98 315.262 1851.98 317.93V318.425C1851.98 318.575 1851.92 318.709 1851.8 318.829C1851.71 318.919 1851.59 318.964 1851.44 318.964L1846.18 319.189C1845.82 319.189 1845.64 319.024 1845.64 318.694V317.525C1845.64 316.656 1845.4 315.951 1844.92 315.412C1844.44 314.872 1843.79 314.602 1842.98 314.602C1842.2 314.602 1841.57 314.872 1841.09 315.412C1840.61 315.951 1840.37 316.656 1840.37 317.525V333.04C1840.37 333.91 1840.61 334.614 1841.09 335.154C1841.57 335.663 1842.2 335.918 1842.98 335.918C1843.79 335.918 1844.44 335.663 1844.92 335.154C1845.4 334.614 1845.64 333.91 1845.64 333.04V331.826C1845.64 331.676 1845.68 331.556 1845.77 331.466C1845.89 331.346 1846.03 331.286 1846.18 331.286L1851.44 331.511C1851.59 331.511 1851.71 331.571 1851.8 331.691C1851.92 331.781 1851.98 331.901 1851.98 332.051V332.501C1851.98 335.199 1851.15 337.357 1849.5 338.976C1847.85 340.565 1845.68 341.36 1842.98 341.36Z" fill="black"/>
<rect x="407.236" y="323.249" width="1267.93" height="322.291" fill="#D5CA9F"/>
<path d="M812.439 616C812.289 616 812.154 615.955 812.034 615.865C811.944 615.745 811.899 615.61 811.899 615.46V610.918C811.899 610.678 811.944 610.454 812.034 610.244L821.658 590.232C821.688 590.142 821.688 590.082 821.658 590.052C821.628 589.992 821.568 589.962 821.478 589.962H812.439C812.289 589.962 812.154 589.917 812.034 589.827C811.944 589.707 811.899 589.572 811.899 589.422V585.06C811.899 584.91 811.944 584.79 812.034 584.7C812.154 584.58 812.289 584.52 812.439 584.52H827.909C828.059 584.52 828.179 584.58 828.269 584.7C828.389 584.79 828.449 584.91 828.449 585.06V589.602C828.449 589.812 828.404 590.037 828.314 590.277L818.69 610.289C818.66 610.379 818.66 610.454 818.69 610.514C818.72 610.544 818.78 610.559 818.87 610.559H827.909C828.059 610.559 828.179 610.618 828.269 610.738C828.389 610.828 828.449 610.948 828.449 611.098V615.46C828.449 615.61 828.389 615.745 828.269 615.865C828.179 615.955 828.059 616 827.909 616H812.439ZM840.146 616.36C837.478 616.36 835.379 615.685 833.85 614.336C832.351 612.987 831.602 611.143 831.602 608.805V600.08C831.602 597.802 832.366 595.973 833.895 594.594C835.424 593.215 837.508 592.525 840.146 592.525C842.814 592.525 844.913 593.215 846.442 594.594C847.971 595.973 848.735 597.802 848.735 600.08V608.805C848.735 611.143 847.971 612.987 846.442 614.336C844.943 615.685 842.844 616.36 840.146 616.36ZM840.146 610.873C840.806 610.873 841.345 610.633 841.765 610.154C842.185 609.674 842.395 609.059 842.395 608.31V600.53C842.395 599.781 842.185 599.166 841.765 598.686C841.345 598.207 840.806 597.967 840.146 597.967C839.486 597.967 838.947 598.207 838.527 598.686C838.137 599.166 837.942 599.781 837.942 600.53V608.31C837.942 609.059 838.137 609.674 838.527 610.154C838.947 610.633 839.486 610.873 840.146 610.873ZM863.233 592.525C865.272 592.525 866.801 593.2 867.82 594.549C868.84 595.898 869.349 597.787 869.349 600.215V615.46C869.349 615.61 869.289 615.745 869.169 615.865C869.08 615.955 868.96 616 868.81 616H863.548C863.398 616 863.263 615.955 863.143 615.865C863.053 615.745 863.008 615.61 863.008 615.46V600.71C863.008 599.84 862.829 599.166 862.469 598.686C862.139 598.207 861.644 597.967 860.985 597.967C860.295 597.967 859.756 598.222 859.366 598.731C859.006 599.211 858.826 599.9 858.826 600.8V615.46C858.826 615.61 858.766 615.745 858.646 615.865C858.556 615.955 858.436 616 858.287 616H853.025C852.875 616 852.74 615.955 852.62 615.865C852.53 615.745 852.485 615.61 852.485 615.46V593.425C852.485 593.275 852.53 593.155 852.62 593.065C852.74 592.945 852.875 592.885 853.025 592.885H858.287C858.436 592.885 858.556 592.945 858.646 593.065C858.766 593.155 858.826 593.275 858.826 593.425V594.279C858.826 594.369 858.856 594.414 858.916 594.414C859.006 594.414 859.111 594.354 859.231 594.234C860.19 593.095 861.524 592.525 863.233 592.525ZM889.958 605.882C889.958 606.031 889.898 606.166 889.778 606.286C889.688 606.376 889.568 606.421 889.418 606.421H879.525C879.375 606.421 879.3 606.496 879.3 606.646V608.31C879.3 609.059 879.495 609.689 879.884 610.199C880.304 610.678 880.829 610.918 881.458 610.918C882.028 610.918 882.493 610.738 882.853 610.379C883.212 609.989 883.452 609.509 883.572 608.94C883.662 608.64 883.857 608.49 884.157 608.49L889.328 608.76C889.478 608.76 889.598 608.82 889.688 608.94C889.808 609.03 889.853 609.164 889.823 609.344C889.613 611.653 888.804 613.407 887.395 614.606C886.016 615.775 884.037 616.36 881.458 616.36C878.79 616.36 876.707 615.7 875.208 614.381C873.708 613.032 872.959 611.173 872.959 608.805V600.08C872.959 597.802 873.708 595.973 875.208 594.594C876.737 593.215 878.82 592.525 881.458 592.525C884.097 592.525 886.165 593.215 887.664 594.594C889.193 595.973 889.958 597.802 889.958 600.08V605.882ZM881.458 597.967C880.829 597.967 880.304 598.207 879.884 598.686C879.495 599.166 879.3 599.781 879.3 600.53V602.284C879.3 602.434 879.375 602.509 879.525 602.509H883.392C883.542 602.509 883.617 602.434 883.617 602.284V600.53C883.617 599.781 883.407 599.166 882.987 598.686C882.598 598.207 882.088 597.967 881.458 597.967ZM921.561 607.321C921.561 610.109 920.721 612.252 919.043 613.751C917.364 615.25 915.19 616 912.522 616H904.022C903.872 616 903.737 615.955 903.618 615.865C903.528 615.745 903.483 615.61 903.483 615.46V585.06C903.483 584.91 903.528 584.79 903.618 584.7C903.737 584.58 903.872 584.52 904.022 584.52H911.532C914.53 584.52 916.869 585.24 918.548 586.679C920.257 588.118 921.111 590.262 921.111 593.11C921.111 596.078 920.092 598.237 918.053 599.586C917.933 599.676 917.918 599.766 918.008 599.855C920.377 601.534 921.561 604.023 921.561 607.321ZM910.048 589.962C909.898 589.962 909.823 590.037 909.823 590.187V597.247C909.823 597.397 909.898 597.472 910.048 597.472H911.667C912.687 597.472 913.481 597.157 914.051 596.528C914.62 595.868 914.905 594.954 914.905 593.784C914.905 592.555 914.62 591.611 914.051 590.951C913.511 590.292 912.717 589.962 911.667 589.962H910.048ZM912.027 610.514C913.016 610.514 913.796 610.154 914.366 609.434C914.935 608.715 915.22 607.695 915.22 606.376C915.22 605.057 914.935 604.008 914.366 603.228C913.796 602.449 913.031 602.059 912.072 602.059H910.048C909.898 602.059 909.823 602.134 909.823 602.284V610.289C909.823 610.439 909.898 610.514 910.048 610.514H912.027Z" fill="black"/>
<rect x="515.916" y="94.6472" width="1159.25" height="464.699" fill="#1496D4"/>
<path d="M970.2 345C969.84 345 969.646 344.835 969.616 344.505L968.896 340.188C968.896 340.038 968.806 339.963 968.626 339.963H962.915C962.735 339.963 962.645 340.038 962.645 340.188L961.926 344.505C961.896 344.835 961.701 345 961.341 345H956.079C955.69 345 955.54 344.805 955.63 344.415L962.24 314.015C962.3 313.685 962.495 313.52 962.825 313.52H968.896C969.226 313.52 969.421 313.685 969.481 314.015L976.046 344.415L976.091 344.595C976.091 344.865 975.926 345 975.597 345H970.2ZM963.544 334.837C963.544 334.986 963.604 335.061 963.724 335.061H967.772C967.922 335.061 967.982 334.986 967.952 334.837L965.838 322.56C965.808 322.47 965.763 322.425 965.703 322.425C965.643 322.425 965.598 322.47 965.568 322.56L963.544 334.837ZM989.288 322.425C989.288 322.275 989.333 322.155 989.423 322.065C989.543 321.945 989.678 321.885 989.827 321.885H995.089C995.239 321.885 995.359 321.945 995.449 322.065C995.569 322.155 995.629 322.275 995.629 322.425V352.825C995.629 352.975 995.569 353.095 995.449 353.185C995.359 353.305 995.239 353.365 995.089 353.365H989.827C989.678 353.365 989.543 353.305 989.423 353.185C989.333 353.095 989.288 352.975 989.288 352.825V343.696C989.288 343.606 989.258 343.561 989.198 343.561C989.138 343.531 989.078 343.546 989.018 343.606C988.418 344.265 987.759 344.73 987.039 345C986.32 345.24 985.63 345.36 984.971 345.36C982.932 345.36 981.373 344.715 980.294 343.426C979.244 342.107 978.72 340.233 978.72 337.805V329.035C978.72 326.697 979.244 324.868 980.294 323.549C981.343 322.2 982.902 321.525 984.971 321.525C986.62 321.525 987.969 322.08 989.018 323.189C989.078 323.249 989.138 323.279 989.198 323.279C989.258 323.249 989.288 323.189 989.288 323.099V322.425ZM987.174 339.918C987.714 339.918 988.179 339.738 988.568 339.379C988.958 338.989 989.198 338.494 989.288 337.895V328.945C989.198 328.346 988.958 327.866 988.568 327.506C988.179 327.117 987.714 326.922 987.174 326.922C986.545 326.922 986.035 327.162 985.645 327.641C985.255 328.121 985.061 328.751 985.061 329.53V337.31C985.061 338.089 985.255 338.719 985.645 339.199C986.035 339.678 986.545 339.918 987.174 339.918ZM1010.21 322.425C1010.21 322.275 1010.26 322.155 1010.35 322.065C1010.47 321.945 1010.6 321.885 1010.75 321.885H1016.01C1016.16 321.885 1016.28 321.945 1016.37 322.065C1016.49 322.155 1016.55 322.275 1016.55 322.425V344.46C1016.55 344.61 1016.49 344.745 1016.37 344.865C1016.28 344.955 1016.16 345 1016.01 345H1010.75C1010.6 345 1010.47 344.955 1010.35 344.865C1010.26 344.745 1010.21 344.61 1010.21 344.46V343.696C1010.21 343.606 1010.18 343.546 1010.12 343.516C1010.06 343.486 1010 343.516 1009.94 343.606C1009.49 344.235 1008.92 344.685 1008.23 344.955C1007.57 345.195 1006.79 345.315 1005.89 345.315C1004.09 345.315 1002.61 344.775 1001.44 343.696C1000.27 342.587 999.687 340.893 999.687 338.614V322.425C999.687 322.275 999.732 322.155 999.822 322.065C999.942 321.945 1000.08 321.885 1000.23 321.885H1005.49C1005.64 321.885 1005.76 321.945 1005.85 322.065C1005.97 322.155 1006.03 322.275 1006.03 322.425V337.22C1006.03 338.089 1006.19 338.764 1006.52 339.244C1006.88 339.693 1007.39 339.918 1008.05 339.918C1008.71 339.918 1009.24 339.663 1009.63 339.154C1010.02 338.644 1010.21 337.955 1010.21 337.085V322.425ZM1029.02 321.525C1031.57 321.525 1033.64 322.215 1035.23 323.594C1036.81 324.973 1037.61 326.787 1037.61 329.035V344.46C1037.61 344.61 1037.55 344.745 1037.43 344.865C1037.34 344.955 1037.22 345 1037.07 345H1031.81C1031.66 345 1031.52 344.955 1031.4 344.865C1031.31 344.745 1031.27 344.61 1031.27 344.46V343.471C1031.27 343.381 1031.24 343.321 1031.18 343.291C1031.12 343.261 1031.06 343.291 1031 343.381C1030.01 344.64 1028.48 345.3 1026.41 345.36C1024.67 345.36 1023.16 344.88 1021.87 343.921C1020.61 342.961 1019.98 341.133 1019.98 338.434C1019.98 335.646 1020.75 333.727 1022.27 332.678C1023.83 331.629 1026.07 331.104 1028.97 331.104H1031.04C1031.19 331.104 1031.27 331.029 1031.27 330.879V329.755C1031.27 328.945 1031.04 328.286 1030.59 327.776C1030.17 327.237 1029.63 326.967 1028.97 326.967C1028.47 326.967 1028.03 327.132 1027.67 327.461C1027.34 327.761 1027.13 328.196 1027.04 328.766C1027.01 329.125 1026.82 329.305 1026.46 329.305L1021.06 329.26C1020.7 329.26 1020.52 329.08 1020.52 328.721C1020.67 326.532 1021.52 324.793 1023.08 323.504C1024.64 322.185 1026.62 321.525 1029.02 321.525ZM1028.57 340.458C1029.26 340.458 1029.87 340.233 1030.41 339.783C1030.98 339.304 1031.27 338.674 1031.27 337.895V335.781C1031.27 335.631 1031.19 335.556 1031.04 335.556H1029.2C1028.39 335.556 1027.73 335.796 1027.22 336.276C1026.74 336.725 1026.5 337.355 1026.5 338.164C1026.5 338.914 1026.68 339.484 1027.04 339.873C1027.43 340.263 1027.94 340.458 1028.57 340.458ZM1052.19 321.525C1054.26 321.525 1055.82 322.2 1056.87 323.549C1057.95 324.868 1058.49 326.697 1058.49 329.035V337.805C1058.49 340.233 1057.95 342.107 1056.87 343.426C1055.79 344.715 1054.23 345.36 1052.19 345.36C1051.53 345.36 1050.84 345.24 1050.12 345C1049.4 344.73 1048.75 344.265 1048.15 343.606C1048.09 343.516 1048.03 343.486 1047.97 343.516C1047.91 343.546 1047.88 343.606 1047.88 343.696V352.825C1047.88 352.975 1047.82 353.095 1047.7 353.185C1047.61 353.305 1047.49 353.365 1047.34 353.365H1042.07C1041.92 353.365 1041.79 353.305 1041.67 353.185C1041.58 353.095 1041.53 352.975 1041.53 352.825V322.425C1041.53 322.275 1041.58 322.155 1041.67 322.065C1041.79 321.945 1041.92 321.885 1042.07 321.885H1047.34C1047.49 321.885 1047.61 321.945 1047.7 322.065C1047.82 322.155 1047.88 322.275 1047.88 322.425V323.144C1047.88 323.204 1047.91 323.234 1047.97 323.234C1048.09 323.234 1048.21 323.159 1048.33 323.009C1049.34 322.02 1050.63 321.525 1052.19 321.525ZM1052.15 329.53C1052.15 328.751 1051.95 328.121 1051.56 327.641C1051.17 327.162 1050.65 326.922 1049.99 326.922C1049.36 326.922 1048.85 327.162 1048.46 327.641C1048.07 328.121 1047.88 328.751 1047.88 329.53V337.31C1047.88 338.089 1048.07 338.719 1048.46 339.199C1048.85 339.678 1049.36 339.918 1049.99 339.918C1050.65 339.918 1051.17 339.678 1051.56 339.199C1051.95 338.719 1052.15 338.089 1052.15 337.31V329.53ZM1070.46 345.36C1067.79 345.36 1065.7 344.685 1064.17 343.336C1062.67 341.987 1061.92 340.143 1061.92 337.805V329.08C1061.92 326.802 1062.68 324.973 1064.21 323.594C1065.74 322.215 1067.82 321.525 1070.46 321.525C1073.13 321.525 1075.23 322.215 1076.76 323.594C1078.29 324.973 1079.05 326.802 1079.05 329.08V337.805C1079.05 340.143 1078.29 341.987 1076.76 343.336C1075.26 344.685 1073.16 345.36 1070.46 345.36ZM1070.46 339.873C1071.12 339.873 1071.66 339.633 1072.08 339.154C1072.5 338.674 1072.71 338.059 1072.71 337.31V329.53C1072.71 328.781 1072.5 328.166 1072.08 327.686C1071.66 327.207 1071.12 326.967 1070.46 326.967C1069.8 326.967 1069.26 327.207 1068.84 327.686C1068.45 328.166 1068.26 328.781 1068.26 329.53V337.31C1068.26 338.059 1068.45 338.674 1068.84 339.154C1069.26 339.633 1069.8 339.873 1070.46 339.873ZM1093.55 321.525C1095.59 321.525 1097.12 322.2 1098.14 323.549C1099.16 324.898 1099.67 326.787 1099.67 329.215V344.46C1099.67 344.61 1099.61 344.745 1099.49 344.865C1099.4 344.955 1099.28 345 1099.13 345H1093.86C1093.71 345 1093.58 344.955 1093.46 344.865C1093.37 344.745 1093.32 344.61 1093.32 344.46V329.71C1093.32 328.84 1093.14 328.166 1092.78 327.686C1092.46 327.207 1091.96 326.967 1091.3 326.967C1090.61 326.967 1090.07 327.222 1089.68 327.731C1089.32 328.211 1089.14 328.9 1089.14 329.8V344.46C1089.14 344.61 1089.08 344.745 1088.96 344.865C1088.87 344.955 1088.75 345 1088.6 345H1083.34C1083.19 345 1083.06 344.955 1082.94 344.865C1082.85 344.745 1082.8 344.61 1082.8 344.46V322.425C1082.8 322.275 1082.85 322.155 1082.94 322.065C1083.06 321.945 1083.19 321.885 1083.34 321.885H1088.6C1088.75 321.885 1088.87 321.945 1088.96 322.065C1089.08 322.155 1089.14 322.275 1089.14 322.425V323.279C1089.14 323.369 1089.17 323.414 1089.23 323.414C1089.32 323.414 1089.43 323.354 1089.55 323.234C1090.51 322.095 1091.84 321.525 1093.55 321.525ZM1106.78 319.277C1105.76 319.277 1104.91 318.947 1104.22 318.287C1103.56 317.598 1103.23 316.743 1103.23 315.724C1103.23 314.675 1103.56 313.82 1104.22 313.161C1104.88 312.501 1105.73 312.171 1106.78 312.171C1107.83 312.171 1108.67 312.501 1109.3 313.161C1109.96 313.82 1110.29 314.675 1110.29 315.724C1110.29 316.743 1109.96 317.598 1109.3 318.287C1108.64 318.947 1107.8 319.277 1106.78 319.277ZM1104.22 345C1104.07 345 1103.93 344.955 1103.81 344.865C1103.72 344.745 1103.68 344.61 1103.68 344.46V322.425C1103.68 322.275 1103.72 322.155 1103.81 322.065C1103.93 321.945 1104.07 321.885 1104.22 321.885H1109.48C1109.63 321.885 1109.75 321.945 1109.84 322.065C1109.96 322.155 1110.02 322.275 1110.02 322.425V344.46C1110.02 344.61 1109.96 344.745 1109.84 344.865C1109.75 344.955 1109.63 345 1109.48 345H1104.22ZM1122.29 345.36C1119.65 345.36 1117.56 344.685 1116.04 343.336C1114.54 341.987 1113.79 340.143 1113.79 337.805V329.08C1113.79 326.802 1114.54 324.973 1116.04 323.594C1117.56 322.215 1119.65 321.525 1122.29 321.525C1124.92 321.525 1126.99 322.2 1128.49 323.549C1130.02 324.898 1130.79 326.652 1130.79 328.81V329.62C1130.79 329.77 1130.73 329.905 1130.61 330.025C1130.52 330.115 1130.4 330.16 1130.25 330.16L1124.98 330.384C1124.62 330.384 1124.44 330.205 1124.44 329.845V329.305C1124.44 328.646 1124.24 328.091 1123.82 327.641C1123.43 327.192 1122.92 326.967 1122.29 326.967C1121.63 326.967 1121.1 327.207 1120.71 327.686C1120.32 328.166 1120.13 328.795 1120.13 329.575V337.31C1120.13 338.089 1120.32 338.719 1120.71 339.199C1121.1 339.678 1121.63 339.918 1122.29 339.918C1122.92 339.918 1123.43 339.693 1123.82 339.244C1124.24 338.764 1124.44 338.209 1124.44 337.58V336.995C1124.44 336.845 1124.49 336.725 1124.58 336.635C1124.7 336.515 1124.83 336.456 1124.98 336.456L1130.25 336.501C1130.4 336.501 1130.52 336.56 1130.61 336.68C1130.73 336.77 1130.79 336.89 1130.79 337.04V338.074C1130.79 340.293 1130.02 342.062 1128.49 343.381C1126.99 344.7 1124.92 345.36 1122.29 345.36ZM1153.8 313.475C1155.45 313.475 1156.92 313.88 1158.21 314.69C1159.5 315.499 1160.49 316.638 1161.18 318.107C1161.9 319.546 1162.26 321.195 1162.26 323.054C1162.26 325.842 1161.51 328.076 1160.01 329.755C1158.51 331.434 1156.54 332.273 1154.12 332.273H1150.74C1150.59 332.273 1150.52 332.348 1150.52 332.498V344.46C1150.52 344.61 1150.46 344.745 1150.34 344.865C1150.25 344.955 1150.13 345 1149.98 345H1144.72C1144.57 345 1144.43 344.955 1144.31 344.865C1144.22 344.745 1144.18 344.61 1144.18 344.46V314.015C1144.18 313.865 1144.22 313.745 1144.31 313.655C1144.43 313.535 1144.57 313.475 1144.72 313.475H1153.8ZM1152.72 327.326C1153.68 327.326 1154.45 326.967 1155.02 326.247C1155.62 325.498 1155.92 324.478 1155.92 323.189C1155.92 321.87 1155.62 320.836 1155.02 320.086C1154.45 319.337 1153.68 318.962 1152.72 318.962H1150.74C1150.59 318.962 1150.52 319.037 1150.52 319.187V327.102C1150.52 327.251 1150.59 327.326 1150.74 327.326H1152.72ZM1173.76 345.36C1171.09 345.36 1168.99 344.685 1167.47 343.336C1165.97 341.987 1165.22 340.143 1165.22 337.805V329.08C1165.22 326.802 1165.98 324.973 1167.51 323.594C1169.04 322.215 1171.12 321.525 1173.76 321.525C1176.43 321.525 1178.53 322.215 1180.06 323.594C1181.59 324.973 1182.35 326.802 1182.35 329.08V337.805C1182.35 340.143 1181.59 341.987 1180.06 343.336C1178.56 344.685 1176.46 345.36 1173.76 345.36ZM1173.76 339.873C1174.42 339.873 1174.96 339.633 1175.38 339.154C1175.8 338.674 1176.01 338.059 1176.01 337.31V329.53C1176.01 328.781 1175.8 328.166 1175.38 327.686C1174.96 327.207 1174.42 326.967 1173.76 326.967C1173.1 326.967 1172.56 327.207 1172.14 327.686C1171.75 328.166 1171.56 328.781 1171.56 329.53V337.31C1171.56 338.059 1171.75 338.674 1172.14 339.154C1172.56 339.633 1173.1 339.873 1173.76 339.873ZM1196.85 321.525C1198.89 321.525 1200.42 322.2 1201.44 323.549C1202.46 324.898 1202.96 326.787 1202.96 329.215V344.46C1202.96 344.61 1202.9 344.745 1202.78 344.865C1202.7 344.955 1202.58 345 1202.43 345H1197.16C1197.01 345 1196.88 344.955 1196.76 344.865C1196.67 344.745 1196.62 344.61 1196.62 344.46V329.71C1196.62 328.84 1196.44 328.166 1196.08 327.686C1195.75 327.207 1195.26 326.967 1194.6 326.967C1193.91 326.967 1193.37 327.222 1192.98 327.731C1192.62 328.211 1192.44 328.9 1192.44 329.8V344.46C1192.44 344.61 1192.38 344.745 1192.26 344.865C1192.17 344.955 1192.05 345 1191.9 345H1186.64C1186.49 345 1186.36 344.955 1186.24 344.865C1186.15 344.745 1186.1 344.61 1186.1 344.46V322.425C1186.1 322.275 1186.15 322.155 1186.24 322.065C1186.36 321.945 1186.49 321.885 1186.64 321.885H1191.9C1192.05 321.885 1192.17 321.945 1192.26 322.065C1192.38 322.155 1192.44 322.275 1192.44 322.425V323.279C1192.44 323.369 1192.47 323.414 1192.53 323.414C1192.62 323.414 1192.73 323.354 1192.85 323.234C1193.81 322.095 1195.14 321.525 1196.85 321.525ZM1217.14 314.06C1217.14 313.91 1217.19 313.79 1217.28 313.7C1217.4 313.58 1217.53 313.52 1217.68 313.52H1222.94C1223.09 313.52 1223.21 313.58 1223.3 313.7C1223.42 313.79 1223.48 313.91 1223.48 314.06V344.46C1223.48 344.61 1223.42 344.745 1223.3 344.865C1223.21 344.955 1223.09 345 1222.94 345H1217.68C1217.53 345 1217.4 344.955 1217.28 344.865C1217.19 344.745 1217.14 344.61 1217.14 344.46V343.741C1217.14 343.651 1217.11 343.606 1217.05 343.606C1216.99 343.576 1216.93 343.591 1216.87 343.651C1215.85 344.79 1214.5 345.36 1212.83 345.36C1210.76 345.36 1209.2 344.7 1208.15 343.381C1207.1 342.032 1206.57 340.173 1206.57 337.805V329.08C1206.57 326.652 1207.1 324.793 1208.15 323.504C1209.23 322.185 1210.79 321.525 1212.83 321.525C1213.48 321.525 1214.17 321.66 1214.89 321.93C1215.61 322.17 1216.27 322.619 1216.87 323.279C1216.93 323.339 1216.99 323.369 1217.05 323.369C1217.11 323.339 1217.14 323.279 1217.14 323.189V314.06ZM1215.03 339.918C1215.57 339.918 1216.03 339.738 1216.42 339.379C1216.81 339.019 1217.05 338.539 1217.14 337.94V328.945C1217.05 328.346 1216.81 327.866 1216.42 327.506C1216.03 327.147 1215.57 326.967 1215.03 326.967C1214.4 326.967 1213.89 327.207 1213.5 327.686C1213.11 328.166 1212.92 328.781 1212.92 329.53V337.355C1212.92 338.104 1213.11 338.719 1213.5 339.199C1213.89 339.678 1214.4 339.918 1215.03 339.918Z" fill="black"/>
<path fill-rule="evenodd" clip-rule="evenodd" d="M89.5665 578.262C94.2071 572.734 97 565.617 97 557.85C97 540.26 82.6731 526 65 526C47.3269 526 33 540.26 33 557.85C33 565.617 35.7929 572.734 40.4335 578.262L40.4098 578.262L65 608.542L89.5903 578.262L89.5665 578.262Z" fill="#AD0061"/>
<ellipse cx="64.9753" cy="557.252" rx="26.5915" ry="26.4673" fill="white"/>
<path d="M49.0742 542.075V553.439H51.9153V556.28H54.7565V553.439H60.4387V542.075H49.0742ZM60.4387 553.439V556.28H63.2798V559.121H57.5976V561.963H49.0742V573.327H60.4387V561.963H68.9621V559.121H66.1209V556.28H71.8032V553.439H74.6443V556.28H77.4854V553.439H80.3266V542.075H68.9621V553.439H60.4387ZM77.4854 556.28V559.121H80.3266V556.28H77.4854ZM77.4854 559.121H74.6443V561.963H77.4854V559.121ZM77.4854 561.963V564.804H80.3266V561.963H77.4854ZM77.4854 564.804H74.6443V561.963H71.8032V564.804H64.7004V573.327H67.5415V567.645H73.2238V570.486H76.0649V567.645H77.4854V564.804ZM73.2238 570.486H70.3826V573.327H73.2238V570.486ZM74.6443 559.121V556.28H71.8032V559.121H74.6443ZM57.5976 559.121V556.28H54.7565V559.121H57.5976ZM51.9153 556.28H49.0742V559.121H51.9153V556.28ZM63.2798 542.075V547.757H61.8593V550.598H63.2798V552.019H66.1209V547.757H67.5415V544.916H66.1209V542.075H63.2798ZM51.9153 544.916H57.5976V550.598H51.9153V544.916ZM71.8032 544.916H77.4854V550.598H71.8032V544.916ZM53.3359 546.336V549.178H56.177V546.336H53.3359ZM73.2238 546.336V549.178H76.0649V546.336H73.2238ZM51.9153 564.804H57.5976V570.486H51.9153V564.804ZM53.3359 566.224V569.065H56.177V566.224H53.3359ZM77.4854 570.486V573.327H80.3266V570.486H77.4854Z" fill="black"/>
<path fill-rule="evenodd" clip-rule="evenodd" d="M1101.57 578.262C1106.21 572.734 1109 565.617 1109 557.85C1109 540.26 1094.67 526 1077 526C1059.33 526 1045 540.26 1045 557.85C1045 565.617 1047.79 572.734 1052.43 578.262L1052.41 578.262L1077 608.542L1101.59 578.262L1101.57 578.262Z" fill="#AD0061"/>
<ellipse cx="1076.98" cy="557.252" rx="26.5915" ry="26.4673" fill="white"/>
<path d="M1061.07 542.075V553.439H1063.92V556.28H1066.76V553.439H1072.44V542.075H1061.07ZM1072.44 553.439V556.28H1075.28V559.121H1069.6V561.963H1061.07V573.327H1072.44V561.963H1080.96V559.121H1078.12V556.28H1083.8V553.439H1086.64V556.28H1089.49V553.439H1092.33V542.075H1080.96V553.439H1072.44ZM1089.49 556.28V559.121H1092.33V556.28H1089.49ZM1089.49 559.121H1086.64V561.963H1089.49V559.121ZM1089.49 561.963V564.804H1092.33V561.963H1089.49ZM1089.49 564.804H1086.64V561.963H1083.8V564.804H1076.7V573.327H1079.54V567.645H1085.22V570.486H1088.06V567.645H1089.49V564.804ZM1085.22 570.486H1082.38V573.327H1085.22V570.486ZM1086.64 559.121V556.28H1083.8V559.121H1086.64ZM1069.6 559.121V556.28H1066.76V559.121H1069.6ZM1063.92 556.28H1061.07V559.121H1063.92V556.28ZM1075.28 542.075V547.757H1073.86V550.598H1075.28V552.019H1078.12V547.757H1079.54V544.916H1078.12V542.075H1075.28ZM1063.92 544.916H1069.6V550.598H1063.92V544.916ZM1083.8 544.916H1089.49V550.598H1083.8V544.916ZM1065.34 546.336V549.178H1068.18V546.336H1065.34ZM1085.22 546.336V549.178H1088.06V546.336H1085.22ZM1063.92 564.804H1069.6V570.486H1063.92V564.804ZM1065.34 566.224V569.065H1068.18V566.224H1065.34ZM1089.49 570.486V573.327H1092.33V570.486H1089.49Z" fill="black"/>
<path fill-rule="evenodd" clip-rule="evenodd" d="M1052.43 117.28C1047.79 122.808 1045 129.925 1045 137.692C1045 155.282 1059.33 169.542 1077 169.542C1094.67 169.542 1109 155.282 1109 137.692C1109 129.925 1106.21 122.808 1101.57 117.28L1101.59 117.28L1077 87L1052.41 117.28L1052.43 117.28Z" fill="#AD0061"/>
<ellipse cx="1077.02" cy="138.29" rx="26.5915" ry="26.4673" transform="rotate(180 1077.02 138.29)" fill="white"/>
<path d="M1061.67 122.215V133.579H1064.51V136.42H1067.36V133.579H1073.04V122.215H1061.67ZM1073.04 133.579V136.42H1075.88V139.262H1070.2V142.103H1061.67V153.467H1073.04V142.103H1081.56V139.262H1078.72V136.42H1084.4V133.579H1087.24V136.42H1090.08V133.579H1092.93V122.215H1081.56V133.579H1073.04ZM1090.08 136.42V139.262H1092.93V136.42H1090.08ZM1090.08 139.262H1087.24V142.103H1090.08V139.262ZM1090.08 142.103V144.944H1092.93V142.103H1090.08ZM1090.08 144.944H1087.24V142.103H1084.4V144.944H1077.3V153.467H1080.14V147.785H1085.82V150.626H1088.66V147.785H1090.08V144.944ZM1085.82 150.626H1082.98V153.467H1085.82V150.626ZM1087.24 139.262V136.42H1084.4V139.262H1087.24ZM1070.2 139.262V136.42H1067.36V139.262H1070.2ZM1064.51 136.42H1061.67V139.262H1064.51V136.42ZM1075.88 122.215V127.897H1074.46V130.738H1075.88V132.159H1078.72V127.897H1080.14V125.056H1078.72V122.215H1075.88ZM1064.51 125.056H1070.2V130.738H1064.51V125.056ZM1084.4 125.056H1090.08V130.738H1084.4V125.056ZM1065.93 126.477V129.318H1068.78V126.477H1065.93ZM1085.82 126.477V129.318H1088.66V126.477H1085.82ZM1064.51 144.944H1070.2V150.626H1064.51V144.944ZM1065.93 146.364V149.205H1068.78V146.364H1065.93ZM1090.08 150.626V153.467H1092.93V150.626H1090.08Z" fill="black"/>
<path fill-rule="evenodd" clip-rule="evenodd" d="M1642.99 324.705C1637.46 320.064 1630.35 317.271 1622.58 317.271C1604.99 317.271 1590.73 331.598 1590.73 349.271C1590.73 366.944 1604.99 381.271 1622.58 381.271C1630.35 381.271 1637.46 378.478 1642.99 373.837L1642.99 373.861L1673.27 349.271L1642.99 324.681L1642.99 324.705Z" fill="#AD0061"/>
<ellipse cx="1621.98" cy="349.296" rx="26.5915" ry="26.4673" transform="rotate(-90 1621.98 349.296)" fill="white"/>
<path d="M1606.8 333.944V345.308H1609.64V348.149H1612.49V345.308H1618.17V333.944H1606.8ZM1618.17 345.308V348.149H1621.01V350.991H1615.33V353.832H1606.8V365.196H1618.17V353.832H1626.69V350.991H1623.85V348.149H1629.53V345.308H1632.37V348.149H1635.21V345.308H1638.06V333.944H1626.69V345.308H1618.17ZM1635.21 348.149V350.991H1638.06V348.149H1635.21ZM1635.21 350.991H1632.37V353.832H1635.21V350.991ZM1635.21 353.832V356.673H1638.06V353.832H1635.21ZM1635.21 356.673H1632.37V353.832H1629.53V356.673H1622.43V365.196H1625.27V359.514H1630.95V362.355H1633.79V359.514H1635.21V356.673ZM1630.95 362.355H1628.11V365.196H1630.95V362.355ZM1632.37 350.991V348.149H1629.53V350.991H1632.37ZM1615.33 350.991V348.149H1612.49V350.991H1615.33ZM1609.64 348.149H1606.8V350.991H1609.64V348.149ZM1621.01 333.944V339.626H1619.59V342.467H1621.01V343.888H1623.85V339.626H1625.27V336.785H1623.85V333.944H1621.01ZM1609.64 336.785H1615.33V342.467H1609.64V336.785ZM1629.53 336.785H1635.21V342.467H1629.53V336.785ZM1611.07 338.206V341.047H1613.91V338.206H1611.07ZM1630.95 338.206V341.047H1633.79V338.206H1630.95ZM1609.64 356.673H1615.33V362.355H1609.64V356.673ZM1611.07 358.093V360.935H1613.91V358.093H1611.07ZM1635.21 362.355V365.196H1638.06V362.355H1635.21Z" fill="black"/>
</svg>
