<svg width="169" height="138" viewBox="0 0 169 138" fill="none" xmlns="http://www.w3.org/2000/svg">
<path d="M113.7 0.800293H55C24.8 0.800293 0.300049 25.3003 0.300049 55.5003C0.300049 83.7003 21.7001 107 49.2001 109.9L64 137.2L79.4 110.1H113.7C143.9 110.1 168.4 85.6003 168.4 55.4003C168.4 25.2003 143.9 0.800293 113.7 0.800293Z" fill="white"/>
<path opacity="0.5" d="M168.4 55.4002C168.4 25.2002 143.9 0.700195 113.7 0.700195H55C24.8 0.700195 0.300049 25.2002 0.300049 55.4002C0.300049 83.6002 21.7001 106.9 49.2001 109.8L64 137.2L79.4 110.1H113.7C143.9 110.1 168.4 85.6002 168.4 55.4002ZM113.7 109.1H78.9L64 135.2L49.9001 108.9L49.4001 108.8C22.0001 106 1.30005 83.0002 1.30005 55.4002C1.30005 25.8002 25.4 1.7002 55 1.7002H113.7C143.3 1.7002 167.4 25.8002 167.4 55.4002C167.4 85.0002 143.3 109.1 113.7 109.1Z" fill="#D9D9D9"/>
</svg>
