<svg width="139" height="139" viewBox="0 0 139 139" fill="none" xmlns="http://www.w3.org/2000/svg">
<path d="M69.2 0L78.7 8.70001L90.6 3.30002L97 14.6L109.9 13.2L112.4 25.9L125.2 28.5L123.7 41.4L135 47.8L129.6 59.6L138.4 69.2L129.6 78.7L135 90.5L123.7 96.9L125.2 109.8L112.4 112.4L109.9 125.1L97 123.7L90.6 135L78.7 129.6L69.2 138.4L59.6 129.6L47.8 135L41.4 123.7L28.5 125.1L25.9 112.4L13.2 109.8L14.6 96.9L3.39999 90.5L8.70001 78.7L0 69.2L8.70001 59.6L3.39999 47.8L14.6 41.4L13.2 28.5L25.9 25.9L28.5 13.2L41.4 14.6L47.8 3.30002L59.6 8.70001L69.2 0Z" fill="white"/>
<path opacity="0.5" d="M138.4 69.2L129.6 59.6L135 47.8L123.7 41.4L125.2 28.5L112.5 25.9L109.9 13.2L97 14.7L90.6 3.40002L78.8 8.80002L69.2 0L59.6 8.80002L47.8 3.40002L41.4 14.7L28.5 13.2L25.9 25.9L13.2 28.5L14.7 41.4L3.39999 47.8L8.79999 59.6L0 69.2L8.79999 78.8L3.39999 90.6L14.7 97L13.2 109.9L25.9 112.5L28.5 125.2L41.4 123.7L47.8 135L59.6 129.6L69.2 138.4L78.8 129.6L90.6 135L97 123.7L109.9 125.2L112.5 112.5L125.2 109.9L123.7 97L135 90.6L129.6 78.8L138.4 69.2ZM133.8 90.1L122.7 96.4L124.1 109.1L111.6 111.7L109 124.2L96.3 122.8L90 133.9L78.4 128.6L69 137.2L59.6 128.6L48 133.9L41.7 122.8L29 124.2L26.5 111.7L14 109.1L15.4 96.4L4.29999 90.1L9.60001 78.5L1 69.1L9.60001 59.7L4.29999 48.1L15.4 41.8L14 29.1L26.5 26.5L29 14L41.7 15.4L48 4.30002L59.6 9.60001L69 1L78.4 9.60001L90 4.30002L96.3 15.4L109 14L111.6 26.5L124.1 29.1L122.7 41.8L133.8 48.1L128.5 59.7L137.1 69.1L128.5 78.5L133.8 90.1Z" fill="#D9D9D9"/>
</svg>
