<svg width="148" height="117" viewBox="0 0 148 117" fill="none" xmlns="http://www.w3.org/2000/svg">
<path d="M125 0.200195H23.2C10.6 0.200195 0.400024 10.4002 0.400024 23.0002V79.2002C0.400024 91.8002 10.6 102 23.2 102H93.8L108.4 116.6L113.1 102H125C137.6 102 147.8 91.8002 147.8 79.2002V23.0002C147.7 10.4002 137.5 0.200195 125 0.200195Z" fill="white"/>
<path opacity="0.5" d="M125 0.200195H23.2C10.6 0.200195 0.400024 10.4002 0.400024 23.0002V79.2002C0.400024 91.8002 10.6 102 23.2 102H93.8L108.4 116.6L113.1 102H125C137.6 102 147.8 91.8002 147.8 79.2002V23.0002C147.7 10.4002 137.5 0.200195 125 0.200195ZM146.5 79.2002C146.5 91.1002 136.8 100.7 125 100.7H112.3L108 114.2L94.5 100.7H23.2C11.3 100.7 1.70003 91.0002 1.70003 79.2002V23.0002C1.70003 11.1002 11.4 1.5002 23.2 1.5002H125C136.9 1.5002 146.5 11.2002 146.5 23.0002V79.2002Z" fill="#D9D9D9"/>
</svg>
