<svg width="172" height="113" viewBox="0 0 172 113" fill="none" xmlns="http://www.w3.org/2000/svg">
<path d="M43.7001 3.49981C38.0001 13.3998 26.2 19.3998 14.9 18.0998C16.7 23.4998 14.8 31.6998 12.4 36.8998C10 42.0998 5.60005 46.2998 0.300049 48.4998C5.70005 52.5998 8.20004 62.3998 9.70004 69.0998C11.1 75.6998 10.1 82.8998 6.80005 88.7998C12.8 86.7998 22.8 88.1998 28.4 91.1998C34 94.1998 38.3001 99.4998 40.1001 105.7C55.9001 96.7998 78 100.4 91.8 112.1C106.7 99.7998 128.8 98.5998 145.9 107.6C143.1 102.4 145.2 96.1998 148.4 91.2998C151.6 86.3998 156.5 82.7998 161.3 79.3998C156.7 73.8998 155.7 65.4998 157.5 58.4998C159.3 51.4998 164.6 45.5998 171.3 42.9998C164.4 43.0998 157 39.9998 152.2 35.0998C147.4 30.1998 144.6 23.3998 144.8 16.4998C139.5 22.5998 129.2 24.6998 121.5 22.4998C113.8 20.2998 107.6 13.3998 106.3 5.39981C103.5 10.6998 95.3 12.2998 89.4 11.5998C83.4 10.8998 78.2 6.1998 76.8 0.299805C71.8 4.2998 67.4 7.59981 61 8.69981C54.5 9.99981 46.6001 9.29981 43.7001 3.49981Z" fill="white"/>
<path opacity="0.5" d="M152.1 35.3C147.3 30.4 144.5 23.6 144.7 16.7C139.4 22.8 129.1 24.9 121.4 22.7C113.7 20.5 107.5 13.6 106.2 5.6C103.4 10.9 95.2 12.5 89.3 11.8C83.3 11.1 78.1 6.4 76.7 0.5C71.7 4.5 67.3 7.8 60.9 8.9C54.6 10 46.7 9.3 43.8 3.5C38.1 13.4 26.3 19.4 15 18.1C16.8 23.5 14.9 31.7 12.5 36.9C10.1 42.1 5.70002 46.3 0.400024 48.5C5.80002 52.6 8.30003 62.4 9.80003 69.1C11.2 75.7 10.2 82.9 6.90002 88.8C12.9 86.8 22.9 88.2 28.5 91.2C34.1 94.2 38.4 99.5 40.2 105.7C56 96.8 78.1 100.4 91.9 112.1C106.8 99.8 128.9 98.6 146 107.6C143.2 102.4 145.3 96.2 148.5 91.3C151.7 86.4 156.6 82.8 161.4 79.4C156.8 73.9 155.8 65.5 157.6 58.5C159.4 51.5 164.7 45.6 171.4 43C164.3 43.2 156.9 40.1 152.1 35.3ZM156.4 58.4C154.5 65.9 155.8 73.9 159.8 79.3C155.5 82.5 150.7 86.1 147.5 90.9C145.4 94.1 142.3 100 144 105.8C126.8 97.8 105.8 99.8 91.7 111C82.9 103.8 71.2 99.9 60.1 99.9C53.2 99.9 46.4 101.4 40.6 104.4C38.6 98.5 34.3 93.4 28.8 90.5C23.8 87.9 15 86.2 8.50003 87.5C11.1 81.8 11.9 75.1 10.5 69C9.00003 61.9 6.60003 53.4 2.00003 48.9C6.90003 46.5 11 42.4 13.2 37.4C15.5 32.4 17.3 24.8 16.1 19.3C26.8 20 37.8 14.5 43.7 5.4C48.1 11.5 57.9 10.4 60.9 9.9C66.9 8.9 71.2 5.9 76 2.2C77.9 7.7 83.2 12.1 89 12.8C94.9 13.5 102 12.1 105.6 8C107.6 15.4 113.6 21.5 121 23.7C128.8 25.9 138.1 23.9 143.7 19C144.1 25.3 146.9 31.5 151.3 36C155.5 40.2 161.5 43.1 167.4 43.9C162.1 47 158 52.3 156.4 58.4Z" fill="#D9D9D9"/>
</svg>
