<svg width="66" height="66" viewBox="0 0 66 66" fill="none" xmlns="http://www.w3.org/2000/svg">
<path d="M29.172 19.7998C27.4249 19.7998 26.004 21.2207 26.004 22.9678V32.4718C26.004 34.219 27.4249 35.6398 29.172 35.6398H33.924C33.924 36.8103 34.5645 37.82 35.508 38.3685V41.9418C35.508 43.7032 36.9486 45.1438 38.71 45.1438H46.596C47.4704 45.1438 48.18 44.4342 48.18 43.5598C48.18 42.6854 47.4704 41.9758 46.596 41.9758H38.676V38.3685C39.6195 37.82 40.26 36.8103 40.26 35.6398H45.012C46.7592 35.6398 48.18 34.219 48.18 32.4718V22.9678C48.18 21.2207 46.7592 19.7998 45.012 19.7998H29.172ZM17.2456 21.3869C16.8489 21.4132 16.5 21.7663 16.5 22.2439V33.1957C16.5 33.8341 17.1203 34.2481 17.6478 33.963L22.836 30.8878V24.5518L17.6478 21.4766C17.5159 21.4053 17.3778 21.3781 17.2456 21.3869ZM30.756 22.9678C31.6304 22.9678 32.34 23.6774 32.34 24.5518C32.34 25.4262 31.6304 26.1358 30.756 26.1358C29.8816 26.1358 29.172 25.4262 29.172 24.5518C29.172 23.6774 29.8816 22.9678 30.756 22.9678Z" fill="black"/>
</svg>
