<svg width="66" height="66" viewBox="0 0 66 66" fill="none" xmlns="http://www.w3.org/2000/svg">
<path d="M32.7643 16.5C29.9016 16.5 27.555 18.8466 27.555 21.7093V36.1303C25.8614 37.5983 24.75 39.7325 24.75 42.1457C24.75 46.5574 28.3526 50.16 32.7643 50.16C37.176 50.16 40.7786 46.5574 40.7786 42.1457C40.7786 39.7325 39.6672 37.5983 37.9736 36.1303V21.7093C37.9736 18.8466 35.6269 16.5 32.7643 16.5ZM32.7643 18.9043C34.3271 18.9043 35.5693 20.1465 35.5693 21.7093V36.6453C35.5693 36.8344 35.614 37.0209 35.6997 37.1895C35.7854 37.3582 35.9096 37.5042 36.0624 37.6158C37.4636 38.6386 38.3743 40.2756 38.3743 42.1457C38.3743 45.2578 35.8764 47.7557 32.7643 47.7557C29.6522 47.7557 27.1543 45.2578 27.1543 42.1457C27.1543 40.2756 28.0649 38.6386 29.4662 37.6158C29.619 37.5042 29.7432 37.3582 29.8289 37.1895C29.9146 37.0209 29.9592 36.8344 29.9593 36.6453V21.7093C29.9593 20.1465 31.2015 18.9043 32.7643 18.9043ZM32.7455 26.9014C32.4269 26.9063 32.1234 27.0375 31.9015 27.2662C31.6796 27.4948 31.5576 27.8022 31.5621 28.1207V38.3233C30.649 38.6106 29.8688 39.2153 29.3629 40.028C28.857 40.8407 28.6587 41.8076 28.804 42.7538C28.9493 43.7001 29.4285 44.563 30.1549 45.1865C30.8813 45.8099 31.807 46.1528 32.7643 46.1529C33.719 46.1492 34.641 45.8049 35.3644 45.1818C36.0877 44.5587 36.5648 43.6979 36.7098 42.7542C36.8548 41.8106 36.6581 40.8462 36.1551 40.0347C35.6522 39.2232 34.876 38.618 33.9664 38.328V28.1207C33.9687 27.9598 33.9387 27.8001 33.8782 27.651C33.8176 27.5019 33.7277 27.3665 33.6139 27.2528C33.5 27.1391 33.3645 27.0494 33.2153 26.989C33.0662 26.9286 32.9064 26.8988 32.7455 26.9014Z" fill="black"/>
</svg>
