<svg width="66" height="66" viewBox="0 0 66 66" fill="none" xmlns="http://www.w3.org/2000/svg">
<g clip-path="url(#clip0)">
<path d="M27.588 16.5C27.588 16.5 16.5 27.588 16.5 37.092C16.5 43.5146 21.1654 48.18 27.588 48.18C34.0106 48.18 38.676 43.5146 38.676 37.092C38.676 27.588 27.588 16.5 27.588 16.5ZM40.26 18.084V21.252H45.012V24.42H41.844V27.588H45.012V30.756H40.26V33.924H45.012V37.092H41.844V40.26H45.012V43.428H40.26V46.596H48.18V18.084H40.26ZM27.588 21.252C29.4009 23.5847 32.7731 27.9592 34.4685 32.34H23.826C23.2258 33.9859 22.836 35.6132 22.836 37.092C22.836 41.2067 25.3729 44.2076 29.172 44.8635C29.4381 44.8202 28.4295 45.012 27.588 45.012C22.9226 45.012 19.668 41.7574 19.668 37.092C19.668 31.4738 25.113 24.4509 27.588 21.252Z" fill="black"/>
</g>
<defs>
<clipPath id="clip0">
<rect width="66" height="66" fill="white"/>
</clipPath>
</defs>
</svg>
