<svg width="66" height="66" viewBox="0 0 66 66" fill="none" xmlns="http://www.w3.org/2000/svg">
<g clip-path="url(#clip0)">
<path d="M43.7431 20.3188H21.499C21.499 20.3188 20.8994 20.3188 20.8994 33.2096C20.8994 46.1004 21.499 45.9805 21.499 45.9805H43.7431C43.7431 45.9805 44.3427 46.0405 44.3427 33.2096C44.3427 20.3788 43.7431 20.3188 43.7431 20.3188ZM41.3448 29.7921C41.3448 29.852 40.4455 34.5287 36.6682 34.4687C35.5889 34.4687 34.8095 34.109 34.8095 34.109C34.7495 34.109 34.7495 34.049 34.6296 34.049C35.8288 32.2503 38.287 31.1711 38.347 31.1711C38.5268 31.1111 38.6467 30.8713 38.5268 30.6315C38.4669 30.4516 38.227 30.3317 38.0472 30.4516C37.8673 30.5116 33.3705 32.5501 33.2506 35.2482C33.2506 35.3081 33.1307 40.0448 33.1307 40.0448H32.4711V35.6679V35.4281V35.3681C32.4711 35.3681 32.4711 35.3681 32.4711 35.3081V34.4687C32.4711 33.8692 32.2913 33.2696 31.9315 32.73C31.9315 32.7899 30.1928 29.7921 27.6746 28.2932C27.4947 28.1732 27.2549 28.2332 27.135 28.4131C27.015 28.5929 27.075 28.8328 27.2549 28.9527C27.3148 29.0126 30.0729 30.8114 31.272 33.0897C31.0921 33.1497 30.9123 33.2096 30.9123 33.2096C30.9123 33.2096 30.3127 33.3895 29.4733 33.3895C25.3362 33.3895 24.3769 27.6936 24.3769 27.5137C24.317 27.3338 24.4369 27.094 24.6168 27.094C24.6767 27.0341 26.4754 26.4345 28.6339 26.4345C30.3127 26.4345 31.6317 27.094 32.3512 28.2332C33.0707 29.3724 33.0707 30.9313 32.5311 32.1904C32.7709 32.6101 33.0108 33.0298 33.1307 33.4495C33.3105 33.1497 33.4904 32.8499 33.7902 32.6101C33.7902 32.4902 33.7302 30.9912 34.8694 29.7921C35.529 29.0726 36.4883 28.7728 37.6275 28.7728C39.7859 28.7728 41.2249 29.3724 41.2849 29.4323C41.2849 29.4323 41.4048 29.6122 41.3448 29.7921Z" fill="black"/>
<path d="M44.2227 20.9786H21.0193C20.4797 20.9786 20 20.5589 20 20.0193C20 19.4797 20.4797 19 21.0193 19H44.2227C44.7623 19 45.182 19.4797 45.182 20.0193C45.182 20.5589 44.7623 20.9786 44.2227 20.9786Z" fill="black"/>
<path d="M44.2227 47H21.0193C20.4797 47 20 46.5203 20 45.9807C20 45.4411 20.4797 44.9614 21.0193 44.9614H44.2227C44.7623 44.9614 45.242 45.4411 45.242 45.9807C45.182 46.5203 44.7623 47 44.2227 47Z" fill="black"/>
</g>
<defs>
<clipPath id="clip0">
<rect width="25.182" height="28" fill="white" transform="translate(20 19)"/>
</clipPath>
</defs>
</svg>
