<svg width="66" height="66" viewBox="0 0 66 66" fill="none" xmlns="http://www.w3.org/2000/svg">
<path d="M18.9823 16.5C16.6999 16.5 14.8501 18.9669 14.8501 22.0096C14.8501 25.0522 16.6999 27.5191 18.9823 27.5191C20.9058 27.5191 22.5085 25.7593 22.9692 23.387H27.443C27.944 25.3212 29.456 26.8321 31.3922 27.3281C31.3833 27.3914 31.3788 27.4552 31.3788 27.5191V33.0287H24.4918C22.9726 33.0287 21.7371 34.2642 21.7371 35.7835V45.4252C21.7371 46.9445 22.9726 48.18 24.4918 48.18H41.0205C42.5398 48.18 43.7753 46.9445 43.7753 45.4252V35.7835C43.7753 34.2642 42.5398 33.0287 41.0205 33.0287H34.1336V27.5191C34.1335 27.4552 34.129 27.3914 34.1201 27.3281C36.0563 26.8321 37.5684 25.3212 38.0694 23.387H42.5432C43.0039 25.7593 44.6066 27.5191 46.5301 27.5191C48.8124 27.5191 50.6623 25.0522 50.6623 22.0096C50.6623 18.9669 48.8124 16.5 46.5301 16.5C44.6066 16.5 43.0039 18.2598 42.5432 20.6322H38.0694C37.4549 18.26 35.3204 16.5 32.7562 16.5C30.192 16.5 28.0575 18.26 27.443 20.6322H22.9692C22.5085 18.2598 20.9058 16.5 18.9823 16.5ZM24.4918 35.7835H41.0205L41.0232 39.9157H24.4918V35.7835Z" fill="black"/>
</svg>
