<svg width="66" height="66" viewBox="0 0 66 66" fill="none" xmlns="http://www.w3.org/2000/svg">
<path d="M18.7725 39.0679C18.6714 39.0722 18.5725 39.105 18.4839 39.1637C18.3953 39.2223 18.3194 39.3051 18.2623 39.4054C18.2053 39.5057 18.1687 39.6207 18.1554 39.7411C18.1422 39.8616 18.1528 39.984 18.1862 40.0986L20.5314 48.5428C21.1459 50.7548 22.8755 52.2526 24.8184 52.2526H41.1845C43.1274 52.2526 44.857 50.755 45.4715 48.5428L47.8167 40.0986C47.8436 40.002 47.8543 39.9 47.8483 39.7984C47.8423 39.6969 47.8197 39.5977 47.7817 39.5066C47.7438 39.4155 47.6913 39.3343 47.6272 39.2675C47.5631 39.2008 47.4887 39.1499 47.4082 39.1177C47.3278 39.0855 47.2428 39.0726 47.1581 39.0799C47.0735 39.0871 46.9909 39.1142 46.915 39.1598C46.8392 39.2054 46.7715 39.2684 46.7159 39.3454C46.6604 39.4223 46.618 39.5116 46.5911 39.6083L45.0541 45.1479C43.8302 44.8523 43.1992 44.0303 43.1729 43.9946C43.0496 43.8256 42.8722 43.7282 42.685 43.7282H42.6787C42.4895 43.7305 42.3108 43.8323 42.1894 44.0067C42.181 44.0198 41.2544 45.2781 39.4571 45.2781C37.6605 45.2781 36.7584 44.0539 36.7248 44.0067C36.4789 43.6541 35.9797 43.6541 35.7338 44.0067C35.7247 44.0198 34.7987 45.2781 33.0015 45.2781C31.2048 45.2781 30.3027 44.0539 30.2691 44.0067C30.0232 43.6541 29.5241 43.6541 29.2781 44.0067C29.2691 44.0198 28.343 45.2781 26.5458 45.2781C24.7492 45.2781 23.847 44.0539 23.8135 44.0067C23.6928 43.8331 23.5153 43.7343 23.328 43.7312H23.3167C23.1327 43.7312 22.9558 43.8272 22.8338 43.9915C22.804 44.0314 22.1736 44.8522 20.95 45.1479L19.4118 39.6083C19.3691 39.4467 19.2835 39.3063 19.168 39.2087C19.0526 39.1111 18.9136 39.0617 18.7725 39.0679Z" fill="black"/>
<path d="M32.256 14.8501C29.1046 14.8501 26.5401 17.8916 26.5401 21.6293C26.5401 21.7352 26.5337 21.8436 26.5401 21.9521C24.1393 21.9521 22.1851 24.2698 22.1851 27.1172C22.1851 29.9645 24.1393 32.2823 26.5401 32.2823H26.9143C26.9143 32.6076 27.1185 32.8825 27.3907 32.9229C27.6629 32.9657 27.918 32.7589 27.9861 32.4437L28.0371 32.2823H30.725C30.725 32.6076 30.9291 32.8825 31.2013 32.9229C31.4735 32.9657 31.7287 32.7589 31.7967 32.4437L31.8477 32.2823H34.5356C34.5356 32.6076 34.7398 32.8825 35.0119 32.9229C35.2841 32.9657 35.5393 32.7589 35.6074 32.4437L35.6584 32.2823H38.3462C38.3462 32.6076 38.5504 32.8825 38.8226 32.9229C39.0948 32.9657 39.3499 32.7589 39.418 32.4437L39.469 32.2823H39.6051C42.6077 32.2823 45.0489 29.387 45.0489 25.8259C45.0489 22.2648 42.6077 19.3696 39.6051 19.3696C38.9629 19.3696 38.3462 19.4931 37.7508 19.7529C37.0597 16.8652 34.8482 14.8501 32.256 14.8501ZM26.9824 33.513L26.5401 33.7551L26.455 33.9569L26.2169 34.9052L26.2849 35.4903L26.7272 35.7526L27.1695 35.4903L27.2546 35.2885L27.4927 34.3402L27.4077 33.7753L26.9824 33.513ZM34.6037 33.513L34.1614 33.7551L34.0763 33.9569L33.8381 34.9052L33.9062 35.4903L34.3485 35.7526L34.7908 35.4903L34.8758 35.2885L35.114 34.3402L35.029 33.7753L34.6037 33.513ZM30.5378 34.4815L30.0955 34.7236L30.0105 34.9253L29.6362 36.3579L29.7213 36.9228L30.1636 37.1851L30.5889 36.943L30.6909 36.7412L31.0482 35.3087L30.9801 34.7438L30.5378 34.4815ZM38.1591 34.4815L37.7168 34.7236L37.6318 34.9253L37.2745 36.3579L37.3426 36.9228L37.7849 37.1851L38.2272 36.943L38.3122 36.7412L38.6695 35.3087L38.6014 34.7438L38.1591 34.4815ZM26.1828 36.3377C26.1594 36.3427 26.136 36.3503 26.1148 36.3579C25.9234 36.4159 25.7724 36.5949 25.7235 36.8219L25.5534 37.4272C25.4811 37.6516 25.5215 37.9039 25.6555 38.0854C25.7894 38.2645 25.9957 38.3402 26.1935 38.2822C26.3891 38.2267 26.5422 38.0426 26.5911 37.8105L26.7612 37.1851C26.8208 36.9757 26.7846 36.7437 26.6677 36.5722C26.5507 36.4007 26.3678 36.3125 26.1828 36.3377ZM33.8041 36.3377C33.7807 36.3427 33.7573 36.3503 33.7361 36.3579C33.5447 36.4159 33.3937 36.5949 33.3448 36.8219L33.1747 37.4272C33.1024 37.6516 33.1428 37.9039 33.2767 38.0854C33.4107 38.2645 33.617 38.3402 33.8147 38.2822C34.0104 38.2267 34.1635 38.0426 34.2124 37.8105L34.3825 37.1851C34.442 36.9757 34.4059 36.7437 34.2889 36.5722C34.172 36.4007 33.9891 36.3125 33.8041 36.3377ZM29.364 38.7588C29.145 38.7891 28.9643 38.9732 28.9047 39.2229L28.7346 39.8483C28.6495 40.1938 28.8175 40.5545 29.1089 40.6554C29.4002 40.7563 29.7043 40.557 29.7893 40.2115L29.9424 39.6062C30.002 39.3969 29.9658 39.1649 29.8489 38.9934C29.7319 38.8219 29.549 38.7336 29.364 38.7588ZM36.9853 38.7588C36.7663 38.7891 36.5855 38.9732 36.526 39.2229L36.3559 39.8483C36.2708 40.1938 36.4388 40.5545 36.7301 40.6554C37.0215 40.7563 37.3255 40.557 37.4106 40.2115L37.5637 39.6062C37.6232 39.3969 37.5871 39.1649 37.4701 38.9934C37.3532 38.8219 37.1703 38.7336 36.9853 38.7588Z" fill="black"/>
</svg>
