<svg width="66" height="66" viewBox="0 0 66 66" fill="none" xmlns="http://www.w3.org/2000/svg">
<g clip-path="url(#clip0)">
<path d="M33.6344 36.8888C33.6344 35.9023 34.4121 35.0866 35.3986 35.0487V29.4335C34.6019 29.2248 34.0327 28.504 34.0327 27.6503C34.0327 26.7967 34.6208 26.0758 35.3986 25.8671V24.5013C35.3986 24.065 35.0382 23.6855 34.5829 23.6855H31.5477C31.1113 23.6855 30.7319 24.046 30.7319 24.5013V30.42C30.7888 30.42 30.8268 30.42 30.8837 30.42C31.8891 30.42 32.7238 31.2357 32.7238 32.2601C32.7238 33.2845 31.9081 34.1002 30.8837 34.1002C30.8268 34.1002 30.7888 34.1002 30.7319 34.1002V39.6584C30.7699 39.6584 30.8078 39.6584 30.8647 39.6584C31.8701 39.6584 32.7048 40.4742 32.7048 41.4986C32.7048 42.5229 31.8891 43.3387 30.8647 43.3387C30.8268 43.3387 30.7699 43.3387 30.7319 43.3387V46.2032C30.7319 46.6395 31.0924 47.0189 31.5477 47.0189H34.6018C35.0382 47.0189 35.4176 46.6584 35.4176 46.2032V38.7289C34.4121 38.672 33.6344 37.8752 33.6344 36.8888Z" fill="black"/>
<path d="M33.7671 29.0352L34.0327 29.3577C34.0327 29.3577 37.5611 26.4932 37.5801 26.4742C38.9459 25.4878 41.7156 26.9105 41.7915 26.9674C41.9053 27.0243 41.9622 27.1761 41.8863 27.2899C41.8294 27.4037 41.6777 27.4607 41.5638 27.3848C41.5449 27.3658 40.0842 26.5691 38.7373 26.6829C38.7562 26.7398 38.7562 26.7777 38.7562 26.7967C38.7752 26.8157 38.889 27.3089 39.3064 27.8401C40.7481 29.7181 43.4039 28.3333 43.4229 28.3333C43.5367 28.2764 43.5747 28.1625 43.5557 28.0487C43.5367 27.9918 43.2901 27.0623 42.4744 25.9999C42.0191 25.4308 41.5069 25.1083 40.8999 25.0514C39.8755 24.9566 39.1546 25.5826 39.0977 25.6205C38.889 25.5826 38.6804 25.6016 38.4527 25.6205C38.6235 25.3739 38.7373 25.1083 38.8511 24.8238C39.6858 24.6341 40.4067 24.027 40.7102 23.2303C40.9947 22.4146 40.805 21.523 40.16 20.7073C39.3443 19.6639 38.3389 19.0189 38.301 18.9999C38.2061 18.9241 38.0733 18.943 37.9785 19.0379C37.8836 19.1896 35.4744 21.8265 37.0679 23.8753C37.3904 24.2926 37.6939 24.5203 37.6939 24.5203C37.6939 24.5203 37.7698 24.5772 37.8836 24.6531C38.5476 23.1924 38.3768 21.1246 38.3768 21.0867C38.3579 20.9539 38.4527 20.8401 38.6045 20.8211C38.7373 20.8021 38.8511 20.897 38.8701 21.0487C39.0977 22.8699 38.3389 24.8617 38.3579 24.8428C38.2251 25.2222 38.0164 25.5447 37.7129 25.7913L37.2955 26.1138C37.2955 26.1138 37.2766 26.1138 37.2766 26.1327C37.2576 26.1517 37.2576 26.1517 37.2386 26.1707L37.1058 26.2655L33.7671 29.0352Z" fill="black"/>
<path d="M37.6369 36.8888L37.7886 36.794C37.8076 36.794 37.8266 36.775 37.8266 36.775C37.8266 36.775 37.8455 36.775 37.8455 36.756L38.3008 36.4905C38.6423 36.2818 39.0027 36.2059 39.4011 36.2249C39.3821 36.2438 41.5257 36.2249 43.1382 37.0785C43.271 37.1354 43.3279 37.2872 43.252 37.401C43.1951 37.5338 43.0434 37.5718 42.9295 37.5148C42.8916 37.5148 41.0135 36.6043 39.4201 36.7181C39.439 36.8509 39.477 36.9457 39.477 36.9457C39.477 36.9457 39.5908 37.3062 39.8564 37.7615C41.1843 39.981 44.5041 38.6531 44.6558 38.5961C44.7696 38.5582 44.8455 38.4254 44.8076 38.3116C44.8076 38.2547 44.561 37.0975 43.878 35.9593C43.3469 35.0677 42.5691 34.5745 41.7154 34.5555C40.8618 34.5555 40.0461 35.0297 39.5718 35.7316C39.2683 35.7316 38.9837 35.7506 38.6992 35.8075C38.794 35.6178 38.8889 35.4092 38.9268 35.2005C38.9837 35.1625 39.8184 34.7073 40.103 33.7208C40.2737 33.1517 40.1409 32.5447 39.7805 31.9186C39.0976 30.7804 38.3008 30.2113 38.2629 30.1734C38.168 30.1165 38.0542 30.1165 37.9593 30.1923C37.9404 30.2113 35.7209 32.1842 36.9539 34.214C37.2954 34.8021 37.7317 35.0867 37.7507 35.1056C37.7696 35.1246 37.7886 35.1436 37.8455 35.1625C38.4336 33.9295 38.206 32.298 38.206 32.2601C38.187 32.1273 38.2818 32.0135 38.4146 31.9945C38.5474 31.9755 38.6612 32.0704 38.6802 32.2032C38.7182 32.298 39.0596 35.3902 37.6558 36.3197C37.6369 36.3387 34.1084 38.3875 34.1084 38.3875L34.3171 38.7479L37.6369 36.8888Z" fill="black"/>
<path d="M28.7016 31.046L28.5688 30.9512C28.5498 30.9322 28.5498 30.9322 28.5309 30.9132C28.5309 30.9132 28.5119 30.9132 28.5119 30.8943L28.0945 30.5718C27.791 30.3252 27.5824 30.0027 27.4496 29.6233C27.4685 29.6422 26.6908 27.6504 26.9374 25.8292C26.9563 25.6964 27.0702 25.5826 27.2029 25.6016C27.3357 25.6205 27.4496 25.7344 27.4306 25.8672C27.4306 25.9051 27.2599 27.9728 27.9238 29.4336C28.0376 29.3766 28.1135 29.3008 28.1135 29.3008C28.1135 29.3008 28.417 29.0731 28.7395 28.6558C30.333 26.626 27.9238 23.9891 27.829 23.8753C27.7531 23.7804 27.6013 23.7615 27.5065 23.8373C27.4496 23.8563 26.4631 24.5013 25.6474 25.5447C25.0024 26.3604 24.8127 27.252 25.0973 28.0677C25.4008 28.8644 26.1216 29.4715 26.9563 29.6612C27.0512 29.9457 27.184 30.2113 27.3547 30.4579C27.1271 30.439 26.9184 30.42 26.7097 30.4579C26.6528 30.42 25.9319 29.794 24.9076 29.8888C24.3195 29.9457 23.7883 30.2682 23.333 30.8373C22.5173 31.8807 22.2517 32.8102 22.2517 32.8672C22.2328 32.981 22.2707 33.0948 22.3845 33.1517C22.4035 33.1707 25.0403 34.5365 26.5011 32.6585C26.9184 32.1273 27.0322 31.6341 27.0512 31.6151C27.0702 31.5962 27.0702 31.5582 27.0702 31.5013C25.7043 31.3875 24.2626 32.1842 24.2436 32.2032C24.1298 32.2601 23.978 32.2222 23.9211 32.1083C23.8642 31.9945 23.9021 31.8617 24.016 31.7859C24.0918 31.7289 26.8615 30.3062 28.2273 31.2926C28.2463 31.3116 31.7748 34.1761 31.7748 34.1761L32.0403 33.8536L28.7016 31.046Z" fill="black"/>
<path d="M31.5473 43.5668L31.7559 43.2063C31.7559 43.2063 28.2275 41.1575 28.2085 41.1386C26.8047 40.209 27.1462 37.1169 27.1841 37.022C27.2031 36.8892 27.3169 36.7944 27.4497 36.8134C27.5825 36.8323 27.6773 36.9462 27.6584 37.0789C27.6394 37.0979 27.4307 38.7483 28.0188 39.9814C28.0567 39.9434 28.0947 39.9434 28.1137 39.9245C28.1326 39.9055 28.55 39.621 28.9104 39.0329C30.1624 37.022 27.924 35.0302 27.905 35.0112C27.8101 34.9353 27.6963 34.9353 27.6015 34.9922C27.5635 35.0302 26.7668 35.5993 26.0838 36.7375C25.7044 37.3635 25.5906 37.9705 25.7614 38.5397C26.0459 39.5261 26.8806 39.9814 26.9375 40.0193C26.9754 40.228 27.0703 40.4177 27.1651 40.6264C26.8806 40.5505 26.596 40.5315 26.2925 40.5505C25.8183 39.8486 24.9836 39.3743 24.1489 39.3743C23.2952 39.3933 22.5174 39.8865 21.9863 40.7781C21.3034 41.9163 21.0567 43.0735 21.0567 43.1304C21.0188 43.2443 21.0947 43.3771 21.2085 43.415C21.3413 43.4719 24.6611 44.7998 26.008 42.5803C26.2735 42.125 26.3874 41.7646 26.3874 41.7646C26.3874 41.7646 26.4253 41.6697 26.4443 41.5369C24.8508 41.4231 22.9727 42.3337 22.9348 42.3337C22.802 42.3906 22.6692 42.3527 22.6123 42.2199C22.5554 42.0871 22.6123 41.9543 22.7261 41.8974C24.3386 41.0437 26.4822 41.0437 26.4632 41.0437C26.8616 41.0247 27.241 41.1196 27.5635 41.3093L28.0188 41.5749C28.0188 41.5749 28.0378 41.5749 28.0378 41.5939C28.0567 41.5939 28.0757 41.6128 28.0757 41.6128L28.2275 41.7077L31.5473 43.5668Z" fill="black"/>
</g>
<defs>
<clipPath id="clip0">
<rect width="23.8076" height="28" fill="white" transform="translate(21 19)"/>
</clipPath>
</defs>
</svg>
