<svg width="66" height="66" viewBox="0 0 66 66" fill="none" xmlns="http://www.w3.org/2000/svg">
<circle cx="33" cy="33" r="33" fill="black"/>
<path d="M33 22C25.28 22 19 28.28 19 36V44H21V36C21 29.383 26.383 24 33 24C39.617 24 45 29.383 45 36V44H47V36C47 28.28 40.72 22 33 22ZM33 26C27.486 26 23 30.486 23 36V44H25V36C25 31.589 28.589 28 33 28C37.411 28 41 31.589 41 36V44H43V36C43 30.486 38.514 26 33 26ZM33 30C29.691 30 27 32.691 27 36V44H29V36C29 33.794 30.794 32 33 32C35.206 32 37 33.794 37 36V44H39V36C39 32.691 36.309 30 33 30Z" fill="white"/>
</svg>
