<svg width="48" height="48" viewBox="0 0 48 48" fill="none" xmlns="http://www.w3.org/2000/svg">
<path d="M16.1739 8C10.5642 8 6 12.5642 6 18.1739C6 29.7266 19.0659 35.428 23.5109 39.1332L24 39.5489L24.4891 39.1332C28.9341 35.428 42 29.7266 42 18.1739C42 12.5642 37.4358 8 31.8261 8C28.6529 8 25.8648 9.50713 24 11.7908C22.1352 9.50713 19.3471 8 16.1739 8ZM16.1739 9.56522C19.176 9.56522 21.7989 11.106 23.3397 13.4293L24 14.4076L24.6603 13.4293C26.2011 11.106 28.824 9.56522 31.8261 9.56522C36.589 9.56522 40.4348 13.411 40.4348 18.1739C40.4348 28.2683 29.1603 33.4929 24 37.5679C18.8397 33.4929 7.56522 28.2683 7.56522 18.1739C7.56522 13.411 11.411 9.56522 16.1739 9.56522Z" fill="#9E5FD6"/>
</svg>
