<svg width="66" height="66" viewBox="0 0 66 66" fill="none" xmlns="http://www.w3.org/2000/svg">
<circle cx="33" cy="33" r="33" fill="#A8A8A8"/>
<path d="M29.0398 19.7998C29.0398 19.7998 19.7998 29.0398 19.7998 36.9598C19.7998 42.312 23.6876 46.1998 29.0398 46.1998C34.392 46.1998 38.2798 42.312 38.2798 36.9598C38.2798 29.0398 29.0398 19.7998 29.0398 19.7998ZM39.5998 21.1198V23.7598H43.5598V26.3998H40.9198V29.0398H43.5598V31.6798H39.5998V34.3198H43.5598V36.9598H40.9198V39.5998H43.5598V42.2398H39.5998V44.8798H46.1998V21.1198H39.5998ZM29.0398 23.7598C30.5506 25.7037 33.3607 29.3492 34.7736 32.9998H25.9048C25.4046 34.3714 25.0798 35.7275 25.0798 36.9598C25.0798 40.3887 27.1939 42.8895 30.3598 43.4361C30.5815 43.4 29.7411 43.5598 29.0398 43.5598C25.152 43.5598 22.4398 40.8476 22.4398 36.9598C22.4398 32.2779 26.9773 26.4256 29.0398 23.7598Z" fill="white"/>
</svg>
