<svg width="66" height="66" viewBox="0 0 66 66" fill="none" xmlns="http://www.w3.org/2000/svg">
<path d="M32.9403 19.54C32.9128 19.545 32.8853 19.5525 32.8603 19.56C32.5628 19.6275 32.3528 19.895 32.3603 20.2V24.04C32.3578 24.27 32.4778 24.485 32.6778 24.6025C32.8778 24.7175 33.1228 24.7175 33.3228 24.6025C33.5228 24.485 33.6428 24.27 33.6403 24.04V20.2C33.6478 20.015 33.5728 19.8375 33.4403 19.7125C33.3053 19.585 33.1228 19.5225 32.9403 19.54ZM23.8203 23.3C23.5803 23.3425 23.3878 23.5175 23.3203 23.75C23.2528 23.985 23.3228 24.235 23.5003 24.4L26.2203 27.12C26.3753 27.31 26.6228 27.3975 26.8628 27.3425C27.1003 27.2875 27.2878 27.1 27.3428 26.8625C27.3978 26.6225 27.3103 26.375 27.1203 26.22L24.4003 23.5C24.2678 23.3575 24.0753 23.285 23.8803 23.3C23.8603 23.3 23.8403 23.3 23.8203 23.3ZM41.9803 23.3C41.8353 23.32 41.7003 23.3925 41.6003 23.5L38.8803 26.22C38.6903 26.375 38.6028 26.6225 38.6578 26.8625C38.7128 27.1 38.9003 27.2875 39.1378 27.3425C39.3778 27.3975 39.6253 27.31 39.7803 27.12L42.5003 24.4C42.7003 24.21 42.7578 23.9125 42.6403 23.6625C42.5203 23.41 42.2553 23.265 41.9803 23.3ZM33.0003 26.6C29.4703 26.6 26.6003 29.47 26.6003 33C26.6003 36.53 29.4703 39.4 33.0003 39.4C36.5303 39.4 39.4003 36.53 39.4003 33C39.4003 29.47 36.5303 26.6 33.0003 26.6ZM20.0203 32.36C19.6678 32.41 19.4203 32.7375 19.4703 33.09C19.5203 33.4425 19.8478 33.69 20.2003 33.64H24.0403C24.2703 33.6425 24.4853 33.5225 24.6028 33.3225C24.7178 33.1225 24.7178 32.8775 24.6028 32.6775C24.4853 32.4775 24.2703 32.3575 24.0403 32.36H20.2003C20.1803 32.36 20.1603 32.36 20.1403 32.36C20.1203 32.36 20.1003 32.36 20.0803 32.36C20.0603 32.36 20.0403 32.36 20.0203 32.36ZM41.7803 32.36C41.4278 32.41 41.1803 32.7375 41.2303 33.09C41.2803 33.4425 41.6078 33.69 41.9603 33.64H45.8003C46.0303 33.6425 46.2453 33.5225 46.3628 33.3225C46.4778 33.1225 46.4778 32.8775 46.3628 32.6775C46.2453 32.4775 46.0303 32.3575 45.8003 32.36H41.9603C41.9403 32.36 41.9203 32.36 41.9003 32.36C41.8803 32.36 41.8603 32.36 41.8403 32.36C41.8203 32.36 41.8003 32.36 41.7803 32.36ZM26.6003 38.68C26.4553 38.7 26.3203 38.7725 26.2203 38.88L23.5003 41.6C23.3103 41.755 23.2228 42.0025 23.2778 42.2425C23.3328 42.48 23.5203 42.6675 23.7578 42.7225C23.9978 42.7775 24.2453 42.69 24.4003 42.5L27.1203 39.78C27.3103 39.5975 27.3678 39.315 27.2653 39.0725C27.1653 38.83 26.9228 38.675 26.6603 38.68C26.6403 38.68 26.6203 38.68 26.6003 38.68ZM39.2003 38.68C38.9603 38.7225 38.7678 38.8975 38.7003 39.13C38.6328 39.365 38.7028 39.615 38.8803 39.78L41.6003 42.5C41.7553 42.69 42.0028 42.7775 42.2428 42.7225C42.4803 42.6675 42.6678 42.48 42.7228 42.2425C42.7778 42.0025 42.6903 41.755 42.5003 41.6L39.7803 38.88C39.6603 38.7525 39.4953 38.6825 39.3203 38.68C39.3003 38.68 39.2803 38.68 39.2603 38.68C39.2403 38.68 39.2203 38.68 39.2003 38.68ZM32.9403 41.3C32.9128 41.305 32.8853 41.3125 32.8603 41.32C32.5628 41.3875 32.3528 41.655 32.3603 41.96V45.8C32.3578 46.03 32.4778 46.245 32.6778 46.3625C32.8778 46.4775 33.1228 46.4775 33.3228 46.3625C33.5228 46.245 33.6428 46.03 33.6403 45.8V41.96C33.6478 41.775 33.5728 41.5975 33.4403 41.4725C33.3053 41.345 33.1228 41.2825 32.9403 41.3Z" fill="black"/>
</svg>
