<svg width="66" height="66" viewBox="0 0 66 66" fill="none" xmlns="http://www.w3.org/2000/svg">
<circle cx="33" cy="33" r="33" fill="#00B451"/>
<g clip-path="url(#clip0)">
<path d="M33.4807 27.7481C33.315 27.98 33.0168 28.1457 32.7186 28.1457C32.4204 28.1457 32.1221 28.0131 31.9564 27.7481L31.0949 26.6214C30.9624 26.4558 30.7304 26.3563 30.5316 26.4226C29.6701 26.7208 28.8748 27.1847 28.1789 27.7812C28.0133 27.9137 27.947 28.1788 28.0464 28.3776L28.6097 29.6368C28.7422 29.9019 28.7091 30.2333 28.5766 30.4984C28.4109 30.7634 28.1458 30.9291 27.8476 30.9623L26.4559 31.1279C26.2239 31.1611 26.0582 31.3268 25.9919 31.5256C25.8263 32.4202 25.7931 33.3481 25.9919 34.2427C26.0251 34.4747 26.2239 34.6404 26.4559 34.6404L27.8476 34.806C28.1458 34.8392 28.4109 35.0049 28.5766 35.27C28.7422 35.535 28.7422 35.8664 28.6097 36.1315L28.0464 37.4238C27.947 37.6226 28.0133 37.8546 28.1789 38.0202C28.8748 38.6498 29.6701 39.1137 30.5316 39.3788C30.7304 39.4451 30.9624 39.3788 31.0949 39.18L31.9233 38.0534C32.089 37.8214 32.3872 37.6558 32.6854 37.6558C32.9837 37.6558 33.2819 37.7883 33.4476 38.0534L34.276 39.18C34.4085 39.3457 34.6405 39.4451 34.8393 39.3788C35.7008 39.0806 36.4961 38.6167 37.1919 38.0202C37.3576 37.8877 37.4239 37.6226 37.3245 37.4238L36.7943 36.2309C36.6618 35.9658 36.6949 35.6344 36.8275 35.3694C36.9931 35.1043 37.2582 34.9386 37.5564 34.9055L38.9482 34.7398C39.1801 34.7066 39.3458 34.541 39.4121 34.3421C39.5115 33.8782 39.5446 33.4143 39.5446 32.9504C39.5446 32.4865 39.5115 32.0557 39.4121 31.5918C39.3789 31.3599 39.1801 31.1942 38.9482 31.1942L37.5564 31.0285C37.2582 30.9954 36.9931 30.8297 36.8275 30.5646C36.6618 30.2995 36.6618 29.9682 36.7943 29.7031L37.3576 28.4108C37.457 28.212 37.3908 27.98 37.2251 27.8143C36.5292 27.1847 35.734 26.7208 34.8724 26.4558C34.6736 26.3895 34.4417 26.4558 34.3091 26.6546L33.4807 27.7481ZM35.1044 32.9504C35.1044 34.2759 34.044 35.3362 32.7186 35.3362C31.3931 35.3362 30.3328 34.2759 30.3328 32.9504C30.3328 31.625 31.3931 30.5646 32.7186 30.5646C34.044 30.5646 35.1044 31.625 35.1044 32.9504Z" fill="white"/>
<path d="M44.5478 27.4497C43.6531 27.4497 42.891 28.0793 42.6591 28.9077H38.981V29.9349H42.6591C42.891 30.7633 43.6531 31.3929 44.5478 31.3929C45.6413 31.3929 46.5028 30.4982 46.5028 29.4379C46.5028 28.3775 45.6413 27.4497 44.5478 27.4497Z" fill="white"/>
<path d="M34.4745 20.955C34.4745 19.8615 33.5798 19 32.5195 19C31.426 19 30.5645 19.8947 30.5645 20.955C30.5645 21.8497 31.194 22.6118 32.0224 22.8438V26.4556H33.0497V22.8438C33.8781 22.645 34.4745 21.8828 34.4745 20.955Z" fill="white"/>
<path d="M23.0429 28.9074V24.4009C23.8713 24.169 24.5009 23.4068 24.5009 22.5122C24.5009 21.4187 23.6062 20.5571 22.5459 20.5571C21.4855 20.5571 20.5908 21.4518 20.5908 22.5122C20.5908 23.4068 21.2204 24.169 22.0488 24.4009V29.9346H26.1577V28.9074H23.0429Z" fill="white"/>
<path d="M20.955 38.2855C21.8497 38.2855 22.6118 37.6559 22.8438 36.8275H26.5219V35.8003H22.8438C22.6118 34.9719 21.8497 34.3423 20.955 34.3423C19.8947 34.3423 19 35.237 19 36.2973C19 37.3908 19.8947 38.2855 20.955 38.2855Z" fill="white"/>
<path d="M30.6636 45.0119C30.6636 46.1054 31.5582 46.9669 32.6186 46.9669C33.7121 46.9669 34.5736 46.0722 34.5736 45.0119C34.5736 44.1172 33.944 43.3551 33.1156 43.1231V39.5444H32.0884V43.1563C31.26 43.3551 30.6636 44.1172 30.6636 45.0119Z" fill="white"/>
<path d="M41.6979 37.0926V41.5992C40.8695 41.8311 40.2399 42.5932 40.2399 43.4879C40.2399 44.5814 41.1346 45.4429 42.1949 45.4429C43.2884 45.4429 44.1499 44.5483 44.1499 43.4879C44.1499 42.5932 43.5204 41.8311 42.692 41.5992V36.0654H38.6162V37.0926H41.6979Z" fill="white"/>
</g>
<defs>
<clipPath id="clip0">
<rect width="27.503" height="28" fill="white" transform="translate(19 19)"/>
</clipPath>
</defs>
</svg>
