<svg width="66" height="66" viewBox="0 0 66 66" fill="none" xmlns="http://www.w3.org/2000/svg">
<circle cx="33" cy="33" r="33" fill="#00B451"/>
<g clip-path="url(#clip0)">
<path d="M33.0002 23.6665C30.3274 23.6665 27.8211 24.9941 26.301 27.1711C21.8921 27.3332 18.4348 31.2772 19.0777 35.8459C19.6097 39.6224 23.0192 42.3332 26.8342 42.3332H36.5002V35.3332H46.9432C46.6504 32.1493 44.0521 29.6234 40.8228 29.5044C39.8124 26.0651 36.674 23.6665 33.0002 23.6665ZM38.8335 37.6665V39.9998H47.0002V37.6665H38.8335ZM38.8335 41.1665V43.4998H47.0002V41.1665H38.8335ZM38.8335 44.6665V46.9998H47.0002V44.6665H38.8335Z" fill="white"/>
</g>
<defs>
<clipPath id="clip0">
<rect width="28" height="28" fill="white" transform="translate(19 19)"/>
</clipPath>
</defs>
</svg>
