<svg width="66" height="66" viewBox="0 0 66 66" fill="none" xmlns="http://www.w3.org/2000/svg">
<circle cx="33" cy="33" r="33" fill="#00B451"/>
<path d="M21.5934 19.7998C19.6914 19.7998 18.1499 21.8556 18.1499 24.3911C18.1499 26.9267 19.6914 28.9824 21.5934 28.9824C23.1963 28.9824 24.5319 27.5159 24.9158 25.5389H28.644C29.0615 27.1508 30.3215 28.4099 31.935 28.8232C31.9276 28.876 31.9239 28.9292 31.9238 28.9824V33.5737H26.1847C24.9186 33.5737 23.889 34.6033 23.889 35.8694V43.9042C23.889 45.1702 24.9186 46.1998 26.1847 46.1998H39.9586C41.2247 46.1998 42.2543 45.1702 42.2543 43.9042V35.8694C42.2543 34.6033 41.2247 33.5737 39.9586 33.5737H34.2195V28.9824C34.2194 28.9292 34.2157 28.876 34.2083 28.8232C35.8218 28.4099 37.0818 27.1508 37.4993 25.5389H41.2275C41.6114 27.5159 42.947 28.9824 44.5499 28.9824C46.4519 28.9824 47.9934 26.9267 47.9934 24.3911C47.9934 21.8556 46.4519 19.7998 44.5499 19.7998C42.947 19.7998 41.6114 21.2663 41.2275 23.2433H37.4993C36.9873 21.2665 35.2085 19.7998 33.0716 19.7998C30.9348 19.7998 29.156 21.2665 28.644 23.2433H24.9158C24.5319 21.2663 23.1963 19.7998 21.5934 19.7998ZM26.1847 35.8694H39.9586L39.9608 39.3128H26.1847V35.8694Z" fill="white"/>
</svg>
