<svg width="66" height="66" viewBox="0 0 66 66" fill="none" xmlns="http://www.w3.org/2000/svg">
<circle cx="33" cy="33" r="33" fill="black"/>
<g clip-path="url(#clip0)">
<path d="M26.6956 19C23.3478 19 20.5478 19.9739 20.426 20.0348C20.1217 20.0957 19.9391 20.4 19.9999 20.7043C20.0608 21.0696 21.5217 29.9565 28.0347 29.9565C29.3739 29.9565 30.2869 29.713 30.2869 29.713C30.2869 29.713 30.5304 29.6522 30.8347 29.5304C29.0086 25.9391 24.626 23.0783 24.5652 23.0174C24.2608 22.8348 24.1999 22.4696 24.3826 22.1652C24.5652 21.8609 24.9304 21.8 25.2347 21.9826C29.1912 24.3565 31.9304 28.9826 31.9304 28.9217C32.4782 29.7739 32.7826 30.687 32.7826 31.6609V33V33.0609C32.7826 33.1217 32.7826 33.1217 32.7826 33.1826V33.6087H24.8695C24.5043 33.6087 24.2608 33.8522 24.2608 34.2174V37.2609C24.2608 37.6261 24.5043 37.8696 24.8695 37.8696H41.913C42.2782 37.8696 42.5217 37.6261 42.5217 37.2609V34.2174C42.5217 33.8522 42.2782 33.6087 41.913 33.6087H33.9999V33.1826C33.9999 33.1217 33.9999 33.0609 33.9999 33C34.1826 28.7391 41.3043 25.513 41.5478 25.4522C41.8521 25.3304 42.2173 25.4522 42.3391 25.7565C42.4608 26.0609 42.3391 26.4261 42.0347 26.5478C41.9739 26.5478 38.1391 28.1913 36.2521 31.0522C36.3739 31.113 36.4347 31.1739 36.4956 31.1739C36.5565 31.1739 37.713 31.7217 39.4173 31.7217C45.3826 31.7826 46.7826 24.4174 46.7826 24.3565C46.8434 24.0522 46.6608 23.8087 46.4173 23.687C46.2956 23.6261 44.0434 22.6522 40.6956 22.6522C38.8695 22.6522 37.4086 23.2 36.3739 24.2957C34.6086 26.1826 34.7304 28.5565 34.7304 28.7391C34.3652 29.1043 33.9999 29.5304 33.7565 30.0174C33.513 29.3478 33.2086 28.6783 32.7826 28.0087C33.6956 26.0609 33.6347 23.687 32.5391 21.8609C31.3826 20.0348 29.313 19 26.6956 19ZM25.7217 39.087L27.3043 46.513C27.3652 46.8174 27.6086 47 27.913 47H38.8695C39.1739 47 39.4173 46.8174 39.4782 46.513L41.0608 39.087H25.7217Z" fill="white"/>
</g>
<defs>
<clipPath id="clip0">
<rect width="26.7826" height="28" fill="white" transform="translate(20 19)"/>
</clipPath>
</defs>
</svg>
