<svg width="66" height="66" viewBox="0 0 66 66" fill="none" xmlns="http://www.w3.org/2000/svg">
<circle cx="33" cy="33" r="33" fill="#00B451"/>
<path d="M20.1053 20C19.5158 20 19 20.5158 19 21.1053C19 21.6947 19.5158 22.2105 20.1053 22.2105H25.6316V24.0526C25.6316 25.0842 26.2211 25.9684 27.1053 26.3368V31.3474C27.1053 31.6421 27.2526 31.9368 27.4 32.1579L30.7158 35.4737H28.2105C27.6211 35.4737 27.1053 35.9895 27.1053 36.5789C27.1053 37.1684 27.6211 37.6842 28.2105 37.6842H37.7895C38.3789 37.6842 38.8947 37.1684 38.8947 36.5789C38.8947 35.9895 38.3789 35.4737 37.7895 35.4737H35.2842L38.5263 32.2316C38.7474 32.0105 38.8211 31.7158 38.8211 31.4211V26.3368C39.7053 25.8947 40.2947 25.0105 40.2947 24.0526V22.2105H45.8211C46.4842 22.2105 47 21.6947 47 21.1053C47 20.5158 46.5579 20 45.9684 20H20.1053ZM29.3158 26.6316H31.8947V29.9474C31.8947 30.5368 32.4105 31.0526 33 31.0526C33.5895 31.0526 34.1053 30.5368 34.1053 29.9474V26.6316H36.6842V30.9789L33 34.6632L29.3158 30.9789V26.6316ZM26.7368 39.8947C26.1474 39.8947 25.6316 40.4105 25.6316 41C25.6316 41.5895 26.1474 42.1053 26.7368 42.1053C27.3263 42.1053 27.8421 41.5895 27.8421 41C27.8421 40.4105 27.3263 39.8947 26.7368 39.8947ZM33 39.8947C32.4105 39.8947 31.8947 40.4105 31.8947 41C31.8947 41.5895 32.4105 42.1053 33 42.1053C33.5895 42.1053 34.1053 41.5895 34.1053 41C34.1053 40.4105 33.5895 39.8947 33 39.8947ZM39.2632 39.8947C38.6737 39.8947 38.1579 40.4105 38.1579 41C38.1579 41.5895 38.6737 42.1053 39.2632 42.1053C39.8526 42.1053 40.3684 41.5895 40.3684 41C40.3684 40.4105 39.8526 39.8947 39.2632 39.8947ZM23.7895 44.3158C23.2 44.3158 22.6842 44.8316 22.6842 45.4211C22.6842 46.0105 23.2 46.5263 23.7895 46.5263C24.3789 46.5263 24.8947 46.0105 24.8947 45.4211C24.8947 44.8316 24.3789 44.3158 23.7895 44.3158ZM33 44.3158C32.4105 44.3158 31.8947 44.8316 31.8947 45.4211C31.8947 46.0105 32.4105 46.5263 33 46.5263C33.5895 46.5263 34.1053 46.0105 34.1053 45.4211C34.1053 44.8316 33.5895 44.3158 33 44.3158ZM42.2105 44.3158C41.6211 44.3158 41.1053 44.8316 41.1053 45.4211C41.1053 46.0105 41.6211 46.5263 42.2105 46.5263C42.8 46.5263 43.3158 46.0105 43.3158 45.4211C43.3158 44.8316 42.8 44.3158 42.2105 44.3158Z" fill="white"/>
</svg>
