<svg width="66" height="66" viewBox="0 0 66 66" fill="none" xmlns="http://www.w3.org/2000/svg">
<circle cx="33" cy="33" r="33" fill="black"/>
<path d="M32.619 17C29.8976 17 27.6667 19.2309 27.6667 21.9524V35.6622C26.0566 37.0578 25 39.0867 25 41.381C25 45.5751 28.4249 49 32.619 49C36.8132 49 40.2381 45.5751 40.2381 41.381C40.2381 39.0867 39.1815 37.0578 37.5714 35.6622V21.9524C37.5714 19.2309 35.3405 17 32.619 17ZM32.619 19.2857C34.1048 19.2857 35.2857 20.4666 35.2857 21.9524V36.1518C35.2858 36.3316 35.3282 36.5089 35.4097 36.6692C35.4911 36.8295 35.6093 36.9683 35.7545 37.0744C37.0866 38.0468 37.9524 39.6031 37.9524 41.381C37.9524 44.3396 35.5777 46.7143 32.619 46.7143C29.6604 46.7143 27.2857 44.3396 27.2857 41.381C27.2857 39.6031 28.1515 38.0468 29.4836 37.0744C29.6288 36.9683 29.747 36.8295 29.8284 36.6692C29.9099 36.5089 29.9523 36.3316 29.9524 36.1518V21.9524C29.9524 20.4666 31.1333 19.2857 32.619 19.2857ZM32.6012 26.8884C32.2983 26.8931 32.0098 27.0179 31.7988 27.2352C31.5879 27.4526 31.4718 27.7448 31.4762 28.0476V37.747C30.608 38.0201 29.8664 38.595 29.3854 39.3677C28.9044 40.1403 28.7159 41.0595 28.854 41.9591C28.9922 42.8586 29.4478 43.679 30.1384 44.2717C30.829 44.8645 31.709 45.1904 32.619 45.1905C33.5267 45.187 34.4032 44.8597 35.0909 44.2673C35.7786 43.675 36.2322 42.8566 36.37 41.9595C36.5078 41.0624 36.3208 40.1455 35.8427 39.3741C35.3645 38.6026 34.6266 38.0272 33.7619 37.7515V28.0476C33.7641 27.8947 33.7356 27.7428 33.678 27.6011C33.6204 27.4593 33.535 27.3306 33.4267 27.2225C33.3185 27.1144 33.1896 27.0291 33.0478 26.9717C32.906 26.9143 32.7542 26.886 32.6012 26.8884Z" fill="white"/>
</svg>
