<svg width="66" height="66" viewBox="0 0 66 66" fill="none" xmlns="http://www.w3.org/2000/svg">
<circle cx="33" cy="33" r="33" fill="black"/>
<path d="M29.7995 20C28.0347 20 26.5995 21.4352 26.5995 23.2V32.8C26.5995 34.5648 28.0347 36 29.7995 36H34.5995C34.5995 37.1823 35.2465 38.2022 36.1995 38.7562V42.3656C36.1995 44.1448 37.6547 45.6 39.4339 45.6H47.3995C48.2827 45.6 48.9995 44.8832 48.9995 44C48.9995 43.1168 48.2827 42.4 47.3995 42.4H39.3995V38.7562C40.3525 38.2022 40.9995 37.1823 40.9995 36H45.7995C47.5643 36 48.9995 34.5648 48.9995 32.8V23.2C48.9995 21.4352 47.5643 20 45.7995 20H29.7995ZM17.7526 21.6031C17.3519 21.6297 16.9995 21.9863 16.9995 22.4687V33.5312C16.9995 34.176 17.6261 34.5942 18.1589 34.3062L23.3995 31.2V24.8L18.1589 21.6937C18.0257 21.6217 17.8862 21.5943 17.7526 21.6031ZM31.3995 23.2C32.2827 23.2 32.9995 23.9168 32.9995 24.8C32.9995 25.6832 32.2827 26.4 31.3995 26.4C30.5163 26.4 29.7995 25.6832 29.7995 24.8C29.7995 23.9168 30.5163 23.2 31.3995 23.2Z" fill="white"/>
</svg>
