<svg width="66" height="66" viewBox="0 0 66 66" fill="none" xmlns="http://www.w3.org/2000/svg">
<circle cx="33" cy="33" r="33" fill="#A8A8A8"/>
<path d="M16.683 39.3111C16.5608 39.3154 16.4413 39.3485 16.3343 39.4075C16.2272 39.4665 16.1355 39.5499 16.0665 39.6508C15.9976 39.7518 15.9533 39.8676 15.9374 39.9888C15.9214 40.11 15.9341 40.2333 15.9745 40.3487L18.8083 48.8496C19.5508 51.0765 21.6406 52.5843 23.9883 52.5843H43.7636C46.1113 52.5843 48.201 51.0766 48.9436 48.8496L51.7773 40.3487C51.8098 40.2515 51.8228 40.1488 51.8155 40.0465C51.8083 39.9443 51.7809 39.8444 51.7351 39.7527C51.6893 39.661 51.6258 39.5792 51.5484 39.5121C51.4709 39.4449 51.381 39.3936 51.2838 39.3612C51.1865 39.3288 51.0839 39.3158 50.9816 39.3231C50.8793 39.3304 50.7795 39.3577 50.6879 39.4036C50.5962 39.4494 50.5144 39.5129 50.4473 39.5904C50.3801 39.6678 50.3289 39.7578 50.2965 39.855L48.4393 45.4319C46.9604 45.1344 46.198 44.3068 46.1662 44.2708C46.0172 44.1007 45.8028 44.0026 45.5766 44.0026H45.569C45.3404 44.005 45.1245 44.1075 44.9779 44.283C44.9677 44.2963 43.848 45.5629 41.6764 45.5629C39.5055 45.5629 38.4155 44.3306 38.3749 44.283C38.0777 43.928 37.4746 43.928 37.1774 44.283C37.1665 44.2963 36.0476 45.5629 33.8759 45.5629C31.7051 45.5629 30.615 44.3306 30.5745 44.283C30.2773 43.928 29.6742 43.928 29.377 44.283C29.366 44.2963 28.2471 45.5629 26.0755 45.5629C23.9046 45.5629 22.8146 44.3306 22.774 44.283C22.6281 44.1083 22.4137 44.0088 22.1875 44.0057H22.1737C21.9514 44.0057 21.7377 44.1024 21.5902 44.2678C21.5543 44.3079 20.7925 45.1342 19.3141 45.4319L17.4554 39.855C17.4038 39.6924 17.3004 39.5511 17.1609 39.4528C17.0214 39.3546 16.8535 39.3048 16.683 39.3111Z" fill="white"/>
<path d="M32.975 14.9307C29.1671 14.9307 26.0684 17.9926 26.0684 21.7554C26.0684 21.862 26.0606 21.9712 26.0684 22.0804C23.1675 22.0804 20.8062 24.4137 20.8062 27.2801C20.8062 30.1466 23.1675 32.4799 26.0684 32.4799H26.5206C26.5206 32.8074 26.7672 33.0842 27.0961 33.1248C27.425 33.168 27.7334 32.9598 27.8156 32.6424L27.8772 32.4799H31.125C31.125 32.8074 31.3717 33.0842 31.7006 33.1248C32.0295 33.168 32.3378 32.9598 32.42 32.6424L32.4817 32.4799H35.7294C35.7294 32.8074 35.9761 33.0842 36.305 33.1248C36.6339 33.168 36.9422 32.9598 37.0244 32.6424L37.0861 32.4799H40.3339C40.3339 32.8074 40.5805 33.0842 40.9094 33.1248C41.2383 33.168 41.5466 32.9598 41.6289 32.6424L41.6905 32.4799H41.855C45.483 32.4799 48.4327 29.5652 48.4327 25.9802C48.4327 22.3952 45.483 19.4805 41.855 19.4805C41.079 19.4805 40.3339 19.6049 39.6144 19.8664C38.7794 16.9593 36.1071 14.9307 32.975 14.9307ZM26.6028 33.7189L26.0684 33.9627L25.9656 34.1658L25.6778 35.1204L25.76 35.7095L26.2945 35.9735L26.8289 35.7095L26.9317 35.5064L27.2195 34.5517L27.1167 33.983L26.6028 33.7189ZM35.8117 33.7189L35.2772 33.9627L35.1744 34.1658L34.8867 35.1204L34.9689 35.7095L35.5033 35.9735L36.0378 35.7095L36.1405 35.5064L36.4283 34.5517L36.3255 33.983L35.8117 33.7189ZM30.8989 34.6939L30.3645 34.9376L30.2617 35.1407L29.8095 36.5829L29.9122 37.1516L30.4467 37.4157L30.9606 37.1719L31.0839 36.9688L31.5156 35.5267L31.4333 34.9579L30.8989 34.6939ZM40.1078 34.6939L39.5733 34.9376L39.4705 35.1407L39.0389 36.5829L39.1211 37.1516L39.6555 37.4157L40.19 37.1719L40.2928 36.9688L40.7244 35.5267L40.6422 34.9579L40.1078 34.6939ZM25.6367 36.5626C25.6084 36.5676 25.5802 36.5753 25.5545 36.5829C25.3232 36.6413 25.1408 36.8215 25.0817 37.05L24.8761 37.6594C24.7888 37.8854 24.8376 38.1393 24.9995 38.3221C25.1613 38.5023 25.4106 38.5785 25.6495 38.5201C25.8859 38.4642 26.0709 38.2789 26.13 38.0453L26.3356 37.4157C26.4075 37.2049 26.3638 36.9713 26.2225 36.7987C26.0812 36.626 25.8602 36.5372 25.6367 36.5626ZM34.8456 36.5626C34.8173 36.5676 34.789 36.5753 34.7633 36.5829C34.5321 36.6413 34.3497 36.8215 34.2906 37.05L34.085 37.6594C33.9976 37.8854 34.0465 38.1393 34.2083 38.3221C34.3702 38.5023 34.6194 38.5785 34.8584 38.5201C35.0948 38.4642 35.2798 38.2789 35.3389 38.0453L35.5444 37.4157C35.6164 37.2049 35.5727 36.9713 35.4314 36.7987C35.2901 36.626 35.0691 36.5372 34.8456 36.5626ZM29.4806 39C29.2159 39.0304 28.9975 39.2158 28.9256 39.4671L28.72 40.0968C28.6172 40.4446 28.8202 40.8077 29.1722 40.9093C29.5243 41.0108 29.8917 40.8102 29.9945 40.4624L30.1795 39.8531C30.2514 39.6423 30.2077 39.4087 30.0664 39.2361C29.9251 39.0634 29.7041 38.9746 29.4806 39ZM38.6894 39C38.4248 39.0304 38.2064 39.2158 38.1344 39.4671L37.9289 40.0968C37.8261 40.4446 38.0291 40.8077 38.3811 40.9093C38.7331 41.0108 39.1005 40.8102 39.2033 40.4624L39.3883 39.8531C39.4603 39.6423 39.4166 39.4087 39.2753 39.2361C39.1339 39.0634 38.913 38.9746 38.6894 39Z" fill="white"/>
</svg>
