<svg width="66" height="66" viewBox="0 0 66 66" fill="none" xmlns="http://www.w3.org/2000/svg">
<circle cx="33" cy="33" r="33" fill="black"/>
<path d="M46.6719 21.4753C46.6076 21.4432 45.4181 20.9288 43.65 20.9288C42.6856 20.9288 41.9141 21.2181 41.3676 21.7968C40.4353 22.7933 40.4996 24.0471 40.4996 24.1435C40.3068 24.3364 40.1139 24.5614 39.9853 24.8186C39.8567 24.465 39.696 24.1114 39.4709 23.7577C39.9531 22.729 39.921 21.4753 39.3424 20.5109C38.7316 19.5465 37.6386 19 36.2562 19C34.4882 19 33.0094 19.5144 32.9451 19.5465C32.7844 19.5786 32.6879 19.7394 32.7201 19.9001C32.7522 20.093 33.5237 24.7865 36.9635 24.7865C37.6707 24.7865 38.1529 24.6579 38.1529 24.6579C38.1529 24.6579 38.2815 24.6257 38.4422 24.5614C37.4778 22.6648 35.1632 21.1538 35.1311 21.1217C34.9704 21.0253 34.9382 20.8324 35.0347 20.6716C35.1311 20.5109 35.324 20.4788 35.4847 20.5752C37.5743 21.8289 39.0209 24.2721 39.0209 24.24C39.3102 24.69 39.4709 25.1722 39.4709 25.6866V26.3938V26.4259C39.4709 26.4581 39.4709 26.4581 39.4709 26.4902V26.7153H35.8383H35.2918H25.9371V26.4902C25.9371 26.4581 25.9371 26.4259 25.9371 26.3938C26.0335 24.1435 29.7947 22.4397 29.9233 22.4076C30.084 22.3433 30.2769 22.4076 30.3412 22.5683C30.4055 22.729 30.3412 22.9219 30.1805 22.9862C30.1483 22.9862 28.1231 23.8542 27.1265 25.3651C27.1908 25.3972 27.2229 25.4294 27.2551 25.4294C27.2872 25.4294 27.898 25.7187 28.7981 25.7187C31.9486 25.7509 32.6879 21.8611 32.6879 21.8289C32.7201 21.6682 32.6236 21.5396 32.495 21.4753C32.4629 21.4432 31.2413 20.9288 29.4732 20.9288C28.5088 20.9288 27.7373 21.2181 27.1908 21.7968C26.2585 22.7933 26.3228 24.0471 26.3228 24.1435C26.13 24.3364 25.9371 24.5614 25.8085 24.8186C25.6799 24.465 25.5192 24.1114 25.2941 23.7577C25.7763 22.729 25.7442 21.4753 25.1655 20.5109C24.5547 19.5465 23.4618 19 22.0794 19C20.3114 19 18.8326 19.5144 18.7683 19.5465C18.6076 19.5786 18.5111 19.7394 18.5433 19.9001C18.5754 20.093 19.3469 24.7865 22.7867 24.7865C23.4939 24.7865 23.9761 24.6579 23.9761 24.6579C23.9761 24.6579 24.1047 24.6257 24.2654 24.5614C23.301 22.6648 20.9864 21.1538 20.9543 21.1217C20.7936 21.0253 20.7614 20.8324 20.8578 20.6716C20.9543 20.5109 21.1472 20.4788 21.3079 20.5752C23.3975 21.8289 24.8441 24.2721 24.8441 24.24C25.1334 24.69 25.2941 25.1722 25.2941 25.6866V26.3938V26.4259C25.2941 26.4581 25.2941 26.4581 25.2941 26.4902V26.7153H21.115C20.9221 26.7153 20.7936 26.8439 20.7936 27.0367V28.6441C20.7936 28.837 20.9221 28.9656 21.115 28.9656H35.2918H35.8383H44.293C44.4859 28.9656 44.6145 28.837 44.6145 28.6441V27.0367C44.6145 26.8439 44.4859 26.7153 44.293 26.7153H40.1139V26.4902C40.1139 26.4581 40.1139 26.4259 40.1139 26.3938C40.2103 24.1435 43.9715 22.4397 44.1001 22.4076C44.2608 22.3433 44.4537 22.4076 44.518 22.5683C44.5823 22.729 44.518 22.9219 44.3573 22.9862C44.3251 22.9862 42.2999 23.8542 41.3033 25.3651C41.3676 25.3972 41.3998 25.4294 41.4319 25.4294C41.4641 25.4294 42.0748 25.7187 42.975 25.7187C46.1254 25.7509 46.8647 21.8611 46.8647 21.8289C46.8969 21.6682 46.8004 21.5396 46.6719 21.4753Z" fill="white"/>
<path d="M48.6005 32.6757C48.5041 32.4507 48.3112 32.29 48.0861 32.2578C47.3789 32.1292 46.9289 31.3577 46.9289 31.3577C46.8324 31.1327 46.6074 31.0041 46.3502 31.0041C46.093 31.0041 45.9001 31.1327 45.7716 31.3577C45.7716 31.3577 45.2894 32.29 44.4214 32.29C43.5534 32.29 43.0712 31.3577 43.0712 31.3577C42.9748 31.1327 42.7497 31.0041 42.4926 31.0041C42.2354 31.0041 42.0425 31.1327 41.9139 31.3577C41.9139 31.3577 41.4317 32.29 40.5638 32.29C39.6958 32.29 39.2136 31.3577 39.2136 31.3577C39.1171 31.1327 38.8921 31.0041 38.6349 31.0041C38.3778 31.0041 38.1849 31.1327 38.0563 31.3577C38.0563 31.3577 37.5741 32.29 36.7061 32.29C35.8381 32.29 35.3559 31.3577 35.3559 31.3577C35.2274 31.1327 35.0023 30.9719 34.713 31.0041C34.488 31.0362 34.2951 31.1648 34.1987 31.3577C34.1987 31.3577 33.7486 32.1614 33.0414 32.2578C32.9771 32.2578 32.9128 32.29 32.8806 32.3221C32.8163 32.29 32.752 32.2578 32.6877 32.2578C31.9805 32.1292 31.5305 31.3577 31.5305 31.3577C31.434 31.1327 31.209 31.0041 30.9518 31.0041C30.6946 31.0041 30.5018 31.1327 30.3732 31.3577C30.3732 31.3577 29.891 32.29 29.023 32.29C28.155 32.29 27.6728 31.3577 27.6728 31.3577C27.5764 31.1327 27.3514 31.0041 27.0942 31.0041C26.837 31.0041 26.6441 31.1327 26.5155 31.3577C26.5155 31.3577 26.0333 32.29 25.1654 32.29C24.2974 32.29 23.8152 31.3577 23.8152 31.3577C23.7187 31.1327 23.4937 31.0041 23.2365 31.0041C22.9794 31.0041 22.7865 31.1327 22.6579 31.3577C22.6579 31.3577 22.1757 32.29 21.3077 32.29C20.4398 32.29 19.9576 31.3577 19.9576 31.3577C19.829 31.1327 19.6039 30.9719 19.3146 31.0041C19.0896 31.0362 18.8967 31.1648 18.8003 31.3577C18.8003 31.3577 18.3502 32.1614 17.643 32.2578C17.2894 32.3221 17.0643 32.6436 17.1286 32.9972C17.1929 33.3508 17.5144 33.5759 17.868 33.5116C18.5431 33.383 19.0253 33.0294 19.3468 32.6757C19.7647 33.0936 20.3755 33.5437 21.2756 33.5437C22.1757 33.5437 22.7865 33.0936 23.2044 32.6757C23.6223 33.0936 24.2331 33.5437 25.1332 33.5437C26.0333 33.5437 26.6441 33.1258 27.062 32.6757C27.4799 33.0936 28.0907 33.5437 28.9908 33.5437C29.891 33.5437 30.5018 33.1258 30.9197 32.6757C31.2733 33.0294 31.7555 33.383 32.4306 33.5116C32.5592 33.5437 32.7199 33.5116 32.8485 33.4473C32.9771 33.5116 33.1057 33.5437 33.2342 33.5116C33.9093 33.383 34.3915 33.0294 34.713 32.6757C35.1309 33.0936 35.7417 33.5437 36.6418 33.5437C37.5419 33.5437 38.1527 33.0936 38.5706 32.6757C38.9886 33.0936 39.5993 33.5437 40.4995 33.5437C41.3996 33.5437 42.0104 33.1258 42.4283 32.6757C42.8462 33.0936 43.457 33.5437 44.3571 33.5437C45.2572 33.5437 45.868 33.1258 46.2859 32.6757C46.6395 33.0294 47.1217 33.383 47.7968 33.5116C48.0218 33.5759 48.279 33.4794 48.4076 33.2865C48.6326 33.1258 48.6969 32.9008 48.6005 32.6757Z" fill="white"/>
<path d="M48.4076 36.7905C48.3112 36.5655 48.1183 36.4047 47.8933 36.3726C47.186 36.244 46.736 35.4725 46.736 35.4725C46.6395 35.2474 46.4145 35.1188 46.1573 35.1188C45.9002 35.1188 45.7073 35.2474 45.5787 35.4725C45.5787 35.4725 45.0965 36.4047 44.2285 36.4047C43.3606 36.4047 42.8783 35.4725 42.8783 35.4725C42.7819 35.2474 42.5569 35.1188 42.2997 35.1188C42.0425 35.1188 41.8496 35.2474 41.7211 35.4725C41.7211 35.4725 41.2389 36.4047 40.3709 36.4047C39.5029 36.4047 39.0207 35.4725 39.0207 35.4725C38.9243 35.2474 38.6992 35.1188 38.4421 35.1188C38.1849 35.1188 37.992 35.2474 37.8634 35.4725C37.8634 35.4725 37.3812 36.4047 36.5132 36.4047C35.6453 36.4047 35.1631 35.4725 35.1631 35.4725C35.0345 35.2474 34.8095 35.0867 34.5201 35.1188C34.2951 35.151 34.1022 35.2796 34.0058 35.4725C34.0058 35.4725 33.5557 36.2761 32.8485 36.3726C32.7842 36.3726 32.7199 36.4047 32.6878 36.4369C32.6235 36.4047 32.5592 36.3726 32.4949 36.3726C31.7876 36.244 31.3376 35.4725 31.3376 35.4725C31.2411 35.2474 31.0161 35.1188 30.7589 35.1188C30.5018 35.1188 30.3089 35.2474 30.1803 35.4725C30.1803 35.4725 29.6981 36.4047 28.8301 36.4047C27.9622 36.4047 27.48 35.4725 27.48 35.4725C27.3835 35.2474 27.1585 35.1188 26.9013 35.1188C26.6441 35.1188 26.4513 35.2474 26.3227 35.4725C26.3227 35.4725 25.8405 36.4047 24.9725 36.4047C24.1045 36.4047 23.6223 35.4725 23.6223 35.4725C23.5259 35.2474 23.3008 35.1188 23.0437 35.1188C22.7865 35.1188 22.5936 35.2474 22.465 35.4725C22.465 35.4725 21.9828 36.4047 21.1149 36.4047C20.2469 36.4047 19.7647 35.4725 19.7647 35.4725C19.6361 35.2474 19.4111 35.0867 19.1217 35.1188C18.8967 35.151 18.7038 35.2796 18.6074 35.4725C18.6074 35.4725 18.1573 36.2761 17.4501 36.3726C17.0965 36.4369 16.8715 36.7583 16.9358 37.112C17 37.4656 17.3215 37.6906 17.6751 37.6263C18.4467 37.5299 18.8967 37.1762 19.2503 36.8226C19.6682 37.2405 20.279 37.6906 21.1791 37.6906C22.0793 37.6906 22.6901 37.2405 23.108 36.8226C23.5259 37.2405 24.1367 37.6906 25.0368 37.6906C25.9369 37.6906 26.5477 37.2727 26.9656 36.8226C27.3835 37.2405 27.9943 37.6906 28.8944 37.6906C29.7945 37.6906 30.4053 37.2727 30.8232 36.8226C31.1769 37.1762 31.6591 37.5299 32.3341 37.6584C32.4627 37.6906 32.6235 37.6584 32.7521 37.5942C32.8806 37.6584 33.0092 37.6906 33.1378 37.6584C33.8129 37.5299 34.2951 37.1762 34.6166 36.8226C35.0345 37.2405 35.6453 37.6906 36.5454 37.6906C37.4455 37.6906 38.0563 37.2405 38.4742 36.8226C38.8921 37.2405 39.5029 37.6906 40.403 37.6906C41.3031 37.6906 41.9139 37.2727 42.3318 36.8226C42.7498 37.2405 43.3606 37.6906 44.2607 37.6906C45.1608 37.6906 45.7716 37.2727 46.1895 36.8226C46.5431 37.1762 47.0253 37.5299 47.7004 37.6584C47.9254 37.7227 48.1826 37.6263 48.3112 37.4334C48.4719 37.2727 48.5041 37.0155 48.4076 36.7905Z" fill="white"/>
<path d="M26.7729 41.9208C26.7408 41.8565 26.3229 40.6028 24.8441 40.217C24.7477 39.767 24.394 39.4133 23.9118 39.3491L22.3045 39.124L22.5617 40.3778C22.2402 40.5063 21.9187 40.6992 21.6615 40.9243C21.3722 40.6671 20.89 40.3135 20.0542 40.4099V43.5603C20.8257 43.6889 21.3401 43.3031 21.6615 43.046C21.9187 43.271 22.3688 43.5924 22.9474 43.7532V44.5247C22.9474 44.5247 24.2976 44.3318 24.6834 43.7853C26.2264 43.4317 26.7408 42.1137 26.7729 42.0815C26.8051 42.0815 26.8051 42.0173 26.7729 41.9208Z" fill="white"/>
<path d="M29.987 44.5571C30.0191 44.6214 30.5656 45.9073 32.0766 46.2609C32.4623 46.8074 33.8125 47.0003 33.8125 47.0003V46.2288C34.4233 46.0359 34.8412 45.7466 35.0984 45.5215C35.3877 45.7787 35.902 46.1645 36.7057 46.0359V42.8855C35.8699 42.7569 35.3877 43.1105 35.0984 43.3998C34.8412 43.1748 34.5197 43.0141 34.1983 42.8533L34.4554 41.5996L32.8481 41.8246C32.3659 41.8889 32.0123 42.2425 31.9158 42.6926C30.4371 43.0784 29.987 44.3321 29.987 44.3964C29.9549 44.3964 29.9549 44.4928 29.987 44.5571Z" fill="white"/>
<path d="M46.6396 41.9208C46.6075 41.8565 46.1896 40.6028 44.7108 40.217C44.6144 39.767 44.2607 39.4133 43.7785 39.3491L42.1712 39.124L42.4284 40.3778C42.1069 40.5063 41.7854 40.6992 41.5282 40.9243C41.2389 40.6671 40.7567 40.3135 39.9209 40.4099V43.5603C40.6924 43.6889 41.2068 43.3031 41.5282 43.046C41.7854 43.271 42.2355 43.5924 42.8141 43.7532V44.5247C42.8141 44.5247 44.1643 44.3318 44.5501 43.7853C46.0931 43.4317 46.6075 42.1137 46.6396 42.0815C46.6718 42.0815 46.6718 42.0173 46.6396 41.9208Z" fill="white"/>
</svg>
